<svg xmlns="http://www.w3.org/2000/svg" viewBox="0 0 80.44 66.15"><defs><style>.cls-1{fill:#f0f;}.cls-2{font-size:46.14px;font-family:AmericanTypewriter, American Typewriter;}</style></defs><title>Asset 2</title><g id="Layer_2" data-name="Layer 2"><g id="Layer_1-2" data-name="Layer 1"><path class="cls-1" d="M68.21,15.47a5.51,5.51,0,0,0,2,4.43,1,1,0,0,1,.28.35,35,35,0,0,1,4.16,13.37,14.43,14.43,0,0,1-3.71,11.14,25.2,25.2,0,0,1-9.17,6.09,100,100,0,0,1-12.69,4.07,43.73,43.73,0,0,0-8.58,2.89.87.87,0,0,1-.63,0c-.77-.31-1.49-.74-2.28-1-3.34-1-6.69-1.95-10-2.9A60.53,60.53,0,0,1,16,49.61a20.92,20.92,0,0,1-7.34-5.88C5.89,40.09,5.28,36,6,31.59a37.62,37.62,0,0,1,3.93-11.3,1.41,1.41,0,0,1,.36-.44,5.81,5.81,0,0,0,1.94-4.41,4.87,4.87,0,0,0-1.06.86,4.61,4.61,0,0,0-1.38,3,2.49,2.49,0,0,1-.23,1.14A34.38,34.38,0,0,0,5.41,32.88a16.24,16.24,0,0,0,1.71,9.7,18.59,18.59,0,0,0,6.53,6.74A48.24,48.24,0,0,0,25.79,54.6c3.77,1.16,7.55,2.31,11.31,3.48a12.6,12.6,0,0,1,1.4.6A46.12,46.12,0,0,0,34.88,62a14.29,14.29,0,0,0-1.67,2.87.52.52,0,0,0,.06.49c.41.29.86.52,1.17.71a16.4,16.4,0,0,1,1.06-2.3A13.54,13.54,0,0,1,40,59.82a.59.59,0,0,1,.5,0,17.68,17.68,0,0,1,1.77,1.2c1.64,1.33,3.22,2.72,3.52,5.08.43-.25.81-.48,1.19-.69s.36-.34.21-.61A15.67,15.67,0,0,0,45.51,62a46.19,46.19,0,0,0-3.61-3.3,11.37,11.37,0,0,1,1.34-.6q4.74-1.48,9.49-2.91A58.71,58.71,0,0,0,65.48,50.1a20.58,20.58,0,0,0,7-6.14c2.67-3.94,3.11-8.29,2.29-12.85a36.4,36.4,0,0,0-3.93-10.69,1.36,1.36,0,0,1-.25-.68C70.79,17.75,69.56,16.58,68.21,15.47Z"/><path class="cls-1" d="M52.56,48.49a17.24,17.24,0,0,0-5.77,2.83A9.46,9.46,0,0,0,45.14,53a2.84,2.84,0,0,0-.62,2.42C48,55.24,52.08,51.73,52.56,48.49Z"/><path class="cls-1" d="M35.88,55.4a.38.38,0,0,0,0-.1,2.65,2.65,0,0,0,0-.29,4,4,0,0,0-1.63-3.12A16.56,16.56,0,0,0,28,48.55a.74.74,0,0,0-.2,0C28.6,52,32.68,55.46,35.88,55.4Z"/><path class="cls-1" d="M20.07,59.8c.71,0,1.3,0,1.89,0a7.41,7.41,0,0,0,4.29-1.49A2.73,2.73,0,0,0,27.35,56c0-.33-.14-.45-.47-.51a6.11,6.11,0,0,0-6.32,3.1C20.37,58.95,20.25,59.35,20.07,59.8Z"/><path class="cls-1" d="M60.28,59.81c0-.08,0-.12,0-.15a6,6,0,0,0-6.85-4.13.59.59,0,0,0-.32.44,2.63,2.63,0,0,0,1.35,2.57A9.26,9.26,0,0,0,60.28,59.81Z"/><path class="cls-1" d="M28,62.4c2.35-.2,4.51-.71,6.08-2.56a4.18,4.18,0,0,0,.62-1.52c.12-.41-.07-.64-.53-.75C31.31,56.89,28.29,59.18,28,62.4Z"/><path class="cls-1" d="M52.49,62.39c-.06-.33-.09-.53-.14-.74a5.28,5.28,0,0,0-6.13-4.06c-.38.08-.51.24-.49.62a2.75,2.75,0,0,0,.85,1.91A8.88,8.88,0,0,0,52.49,62.39Z"/><path class="cls-1" d="M58.79,46.71a16,16,0,0,0-4,2.38A6.91,6.91,0,0,0,52.45,52a9.35,9.35,0,0,0-.28,1.45C55.85,53.07,59.15,49.68,58.79,46.71Z"/><path class="cls-1" d="M28.12,53.41a2.55,2.55,0,0,0-.36-1.91,9,9,0,0,0-3-3c-1-.67-2.09-1.24-3.22-1.89A7.16,7.16,0,0,0,28.12,53.41Z"/><path class="cls-1" d="M12,56c.77.15,1.33.3,1.9.36a7.06,7.06,0,0,0,4.33-.64,2.93,2.93,0,0,0,1.58-2,.54.54,0,0,0-.47-.74,6.3,6.3,0,0,0-5.74,1.3A17.37,17.37,0,0,0,12,56Z"/><path class="cls-1" d="M68.22,56.08a6.32,6.32,0,0,0-7.38-3,.62.62,0,0,0-.25.53,2.68,2.68,0,0,0,1.41,2C64,56.79,66.06,56.58,68.22,56.08Z"/><path class="cls-1" d="M75.56,50c-1.84-1.74-5.7-1.83-7.88-.45a.57.57,0,0,0-.1.52,2.56,2.56,0,0,0,2,1.57C71.83,52.07,73.71,51.19,75.56,50Z"/><path class="cls-1" d="M12.94,49.65c-2-1.59-6.38-1.44-8.05.31a8,8,0,0,0,5.43,1.73A2.72,2.72,0,0,0,12.94,49.65Z"/><path class="cls-1" d="M64.08,44.17c-.38.31-.72.57-1,.85a11.8,11.8,0,0,0-3.26,4.14,3.06,3.06,0,0,0-.23,2.18A5.76,5.76,0,0,0,64.08,44.17Z"/><path class="cls-1" d="M20.83,51.33c.71-2.05-2.13-5.55-4.47-7.05C15.41,46.68,17.15,50.7,20.83,51.33Z"/><path class="cls-1" d="M7.63,44.25C6.19,41.92,2.75,40.6.43,41.36a7.4,7.4,0,0,0,4.71,3.8A2.36,2.36,0,0,0,7.63,44.25Z"/><path class="cls-1" d="M72.81,44.26a2.24,2.24,0,0,0,1.81.95c1.84,0,4.58-2,5.32-3.9C77.74,40.53,74.22,42,72.81,44.26Z"/><path class="cls-1" d="M14.26,48.19c.8-1.61,0-5.63-1.49-7.23A4.46,4.46,0,0,0,14.26,48.19Z"/><path class="cls-1" d="M67.58,40.91a12.39,12.39,0,0,0-1.79,6,6.62,6.62,0,0,0,.3,1.31A4.46,4.46,0,0,0,67.58,40.91Z"/><path class="cls-1" d="M0,32.07a7.09,7.09,0,0,0,2,4.45,5.09,5.09,0,0,0,1.47.86,1.64,1.64,0,0,0,1.58-.19A6.39,6.39,0,0,0,0,32.07Z"/><path class="cls-1" d="M80.44,32.17a1.16,1.16,0,0,0-.21,0l-.23,0a6.37,6.37,0,0,0-4.34,3.9,6.83,6.83,0,0,0-.26,1.15c.45.08.89.17,1.34.22a1,1,0,0,0,.49-.15C79.35,36.26,80,34.32,80.44,32.17Z"/><path class="cls-1" d="M10.94,36.57c-2.83,1.08-3.83,5-1.75,7C10.95,41.49,11,39.08,10.94,36.57Z"/><path class="cls-1" d="M71.25,43.57a3.76,3.76,0,0,0,1-3.48,5,5,0,0,0-2.82-3.59C69.4,39.07,69.47,41.49,71.25,43.57Z"/><path class="cls-1" d="M69.61,31.32c.38,2.53,2.6,5.55,4.23,5.78C74.89,34.93,72.51,31.65,69.61,31.32Z"/><path class="cls-1" d="M10.82,31.35c-2.8.29-5.26,3.38-4.23,5.77C8.31,37,10.37,33.67,10.82,31.35Z"/><path class="cls-1" d="M68,25.57a10.28,10.28,0,0,0,3.88,4.26,2.46,2.46,0,0,0,1.82.32C73.79,27.44,70.54,25.42,68,25.57Z"/><path class="cls-1" d="M6.75,30.13c2.13.32,4.76-2.65,5.57-4.58C9.67,25.27,6.65,27.74,6.75,30.13Z"/><path class="cls-1" d="M74.92,29.82a2.25,2.25,0,0,0,2-.85A5,5,0,0,0,78,26.25c.12-.78.1-1.57.14-2.42C75.91,24.72,74.33,27.7,74.92,29.82Z"/><path class="cls-1" d="M2.34,23.86a16.3,16.3,0,0,0,0,2.22,4.9,4.9,0,0,0,1.4,3.1,2,2,0,0,0,1.76.61A5.58,5.58,0,0,0,2.34,23.86Z"/><path class="cls-1" d="M15.1,19.78C12.23,19.36,9.25,21,9,23.19,10.56,24,13.73,21.83,15.1,19.78Z"/><path class="cls-1" d="M71.54,23.35a5.37,5.37,0,0,0-6.19-3.54,9.1,9.1,0,0,0,4.54,3.44A9,9,0,0,0,71.54,23.35Z"/><path class="cls-1" d="M8,22.79A5.2,5.2,0,0,0,6.2,16.65a.88.88,0,0,0-.1.19A7.63,7.63,0,0,0,6,20.55,2.64,2.64,0,0,0,8,22.79Z"/><path class="cls-1" d="M72.45,22.78a2.2,2.2,0,0,0,1.69-1.4,7.12,7.12,0,0,0,.14-4.73C72.44,17.66,71.52,20.79,72.45,22.78Z"/><text class="cls-2" transform="translate(25.45 38.55)">L</text></g></g></svg>