<svg xmlns="http://www.w3.org/2000/svg" viewBox="0 0 80.44 66.4"><defs><style>.cls-1{font-size:46.14px;stroke:#000;stroke-miterlimit:10;stroke-width:0.5px;font-family:AmericanTypewriter, American Typewriter;}</style></defs><title>Asset 3</title><g id="Layer_2" data-name="Layer 2"><g id="Layer_1-2" data-name="Layer 1"><path d="M68.21,15.72a5.51,5.51,0,0,0,2,4.43,1,1,0,0,1,.28.35,35,35,0,0,1,4.16,13.37A14.43,14.43,0,0,1,70.92,45a25.2,25.2,0,0,1-9.17,6.09,100,100,0,0,1-12.69,4.07,43.73,43.73,0,0,0-8.58,2.89.87.87,0,0,1-.63,0c-.77-.31-1.49-.74-2.28-1-3.34-1-6.69-1.95-10-2.9A60.53,60.53,0,0,1,16,49.86,20.92,20.92,0,0,1,8.61,44C5.89,40.34,5.28,36.21,6,31.84a37.62,37.62,0,0,1,3.93-11.3,1.41,1.41,0,0,1,.36-.44,5.81,5.81,0,0,0,1.94-4.41,4.87,4.87,0,0,0-1.06.86,4.61,4.61,0,0,0-1.38,3,2.49,2.49,0,0,1-.23,1.14A34.38,34.38,0,0,0,5.41,33.13a16.24,16.24,0,0,0,1.71,9.7,18.59,18.59,0,0,0,6.53,6.74,48.24,48.24,0,0,0,12.15,5.28c3.77,1.16,7.55,2.31,11.31,3.48a12.6,12.6,0,0,1,1.4.6,46.12,46.12,0,0,0-3.62,3.29,14.29,14.29,0,0,0-1.67,2.87.52.52,0,0,0,.06.49c.41.29.86.52,1.17.71A16.4,16.4,0,0,1,35.51,64,13.54,13.54,0,0,1,40,60.07a.59.59,0,0,1,.5,0,17.68,17.68,0,0,1,1.77,1.2c1.64,1.33,3.22,2.72,3.52,5.08.43-.25.81-.48,1.19-.69s.36-.34.21-.61a15.67,15.67,0,0,0-1.68-2.87,46.19,46.19,0,0,0-3.61-3.3,11.37,11.37,0,0,1,1.34-.6q4.74-1.48,9.49-2.91a58.71,58.71,0,0,0,12.74-5.07,20.58,20.58,0,0,0,7-6.14c2.67-3.94,3.11-8.29,2.29-12.85a36.4,36.4,0,0,0-3.93-10.69,1.36,1.36,0,0,1-.25-.68C70.79,18,69.56,16.83,68.21,15.72Z"/><path d="M52.56,48.74a17.24,17.24,0,0,0-5.77,2.83,9.46,9.46,0,0,0-1.65,1.68,2.84,2.84,0,0,0-.62,2.42C48,55.49,52.08,52,52.56,48.74Z"/><path d="M35.88,55.65a.38.38,0,0,0,0-.1,2.65,2.65,0,0,0,0-.29,4,4,0,0,0-1.63-3.12A16.56,16.56,0,0,0,28,48.8a.74.74,0,0,0-.2,0C28.6,52.25,32.68,55.71,35.88,55.65Z"/><path d="M20.07,60c.71,0,1.3,0,1.89,0a7.41,7.41,0,0,0,4.29-1.49,2.73,2.73,0,0,0,1.1-2.31c0-.33-.14-.45-.47-.51a6.11,6.11,0,0,0-6.32,3.1C20.37,59.2,20.25,59.6,20.07,60Z"/><path d="M60.28,60.06c0-.08,0-.12,0-.15a6,6,0,0,0-6.85-4.13.59.59,0,0,0-.32.44,2.63,2.63,0,0,0,1.35,2.57A9.26,9.26,0,0,0,60.28,60.06Z"/><path d="M28,62.65c2.35-.2,4.51-.71,6.08-2.56a4.18,4.18,0,0,0,.62-1.52c.12-.41-.07-.64-.53-.75C31.31,57.14,28.29,59.43,28,62.65Z"/><path d="M52.49,62.64c-.06-.33-.09-.53-.14-.74a5.28,5.28,0,0,0-6.13-4.06c-.38.08-.51.24-.49.62a2.75,2.75,0,0,0,.85,1.91A8.88,8.88,0,0,0,52.49,62.64Z"/><path d="M58.79,47a16,16,0,0,0-4,2.38,6.91,6.91,0,0,0-2.33,2.89,9.35,9.35,0,0,0-.28,1.45C55.85,53.32,59.15,49.93,58.79,47Z"/><path d="M28.12,53.66a2.55,2.55,0,0,0-.36-1.91,9,9,0,0,0-3-3c-1-.67-2.09-1.24-3.22-1.89A7.16,7.16,0,0,0,28.12,53.66Z"/><path d="M12,56.29c.77.15,1.33.3,1.9.36A7.06,7.06,0,0,0,18.24,56a2.93,2.93,0,0,0,1.58-2,.54.54,0,0,0-.47-.74,6.3,6.3,0,0,0-5.74,1.3A17.37,17.37,0,0,0,12,56.29Z"/><path d="M68.22,56.33a6.32,6.32,0,0,0-7.38-3,.62.62,0,0,0-.25.53,2.68,2.68,0,0,0,1.41,2C64,57,66.06,56.83,68.22,56.33Z"/><path d="M75.56,50.2c-1.84-1.74-5.7-1.83-7.88-.45a.57.57,0,0,0-.1.52,2.56,2.56,0,0,0,2,1.57C71.83,52.32,73.71,51.44,75.56,50.2Z"/><path d="M12.94,49.9c-2-1.59-6.38-1.44-8.05.31a8,8,0,0,0,5.43,1.73A2.72,2.72,0,0,0,12.94,49.9Z"/><path d="M64.08,44.42c-.38.31-.72.57-1,.85a11.8,11.8,0,0,0-3.26,4.14,3.06,3.06,0,0,0-.23,2.18A5.76,5.76,0,0,0,64.08,44.42Z"/><path d="M20.83,51.58c.71-2.05-2.13-5.55-4.47-7.05C15.41,46.93,17.15,51,20.83,51.58Z"/><path d="M7.63,44.5C6.19,42.17,2.75,40.85.43,41.61a7.4,7.4,0,0,0,4.71,3.8A2.36,2.36,0,0,0,7.63,44.5Z"/><path d="M72.81,44.51a2.24,2.24,0,0,0,1.81.95c1.84,0,4.58-2,5.32-3.9C77.74,40.78,74.22,42.23,72.81,44.51Z"/><path d="M14.26,48.44c.8-1.61,0-5.63-1.49-7.23A4.46,4.46,0,0,0,14.26,48.44Z"/><path d="M67.58,41.16a12.39,12.39,0,0,0-1.79,6,6.62,6.62,0,0,0,.3,1.31A4.46,4.46,0,0,0,67.58,41.16Z"/><path d="M0,32.32a7.09,7.09,0,0,0,2,4.45,5.09,5.09,0,0,0,1.47.86,1.64,1.64,0,0,0,1.58-.19A6.39,6.39,0,0,0,0,32.32Z"/><path d="M80.44,32.42a1.16,1.16,0,0,0-.21,0l-.23,0a6.37,6.37,0,0,0-4.34,3.9,6.83,6.83,0,0,0-.26,1.15c.45.08.89.17,1.34.22a1,1,0,0,0,.49-.15C79.35,36.51,80,34.57,80.44,32.42Z"/><path d="M10.94,36.82c-2.83,1.08-3.83,5-1.75,7C10.95,41.74,11,39.33,10.94,36.82Z"/><path d="M71.25,43.82a3.76,3.76,0,0,0,1-3.48,5,5,0,0,0-2.82-3.59C69.4,39.32,69.47,41.74,71.25,43.82Z"/><path d="M69.61,31.57c.38,2.53,2.6,5.55,4.23,5.78C74.89,35.18,72.51,31.9,69.61,31.57Z"/><path d="M10.82,31.6C8,31.89,5.56,35,6.59,37.37,8.31,37.23,10.37,33.92,10.82,31.6Z"/><path d="M68,25.82a10.28,10.28,0,0,0,3.88,4.26,2.46,2.46,0,0,0,1.82.32C73.79,27.69,70.54,25.67,68,25.82Z"/><path d="M6.75,30.38c2.13.32,4.76-2.65,5.57-4.58C9.67,25.52,6.65,28,6.75,30.38Z"/><path d="M74.92,30.07a2.25,2.25,0,0,0,2-.85A5,5,0,0,0,78,26.5c.12-.78.1-1.57.14-2.42C75.91,25,74.33,27.95,74.92,30.07Z"/><path d="M2.34,24.12a16.3,16.3,0,0,0,0,2.22,4.9,4.9,0,0,0,1.4,3.1A2,2,0,0,0,5.52,30,5.58,5.58,0,0,0,2.34,24.12Z"/><path d="M15.1,20c-2.87-.41-5.85,1.26-6.14,3.41C10.56,24.29,13.73,22.08,15.1,20Z"/><path d="M71.54,23.6a5.37,5.37,0,0,0-6.19-3.54,9.1,9.1,0,0,0,4.54,3.44A9,9,0,0,0,71.54,23.6Z"/><path d="M8,23A5.2,5.2,0,0,0,6.2,16.9a.88.88,0,0,0-.1.19A7.63,7.63,0,0,0,6,20.8,2.64,2.64,0,0,0,8,23Z"/><path d="M72.45,23a2.2,2.2,0,0,0,1.69-1.4,7.12,7.12,0,0,0,.14-4.73C72.44,17.91,71.52,21,72.45,23Z"/><text class="cls-1" transform="translate(25.45 38.8)">L</text></g></g></svg>