<svg xmlns="http://www.w3.org/2000/svg" xmlns:xlink="http://www.w3.org/1999/xlink" viewBox="0 0 341.78 79.07"><defs><style>.cls-1,.cls-2{fill:none;}.cls-2{stroke:#f13c75;stroke-miterlimit:10;}.cls-3{clip-path:url(#clip-path);}.cls-4{fill:url(#linear-gradient);}.cls-5{fill:#fff;}</style><clipPath id="clip-path"><path class="cls-1" d="M55.74,31.78a15.78,15.78,0,0,0-.14,2.12q0,.65.12,1.92t.12,1.92q0,2.08-2.35,2.08-.46,0-2.12-.16-1.11-.08-3.41-.16H37.1q-1.11,0-3.69.18-.37,0-1.27.07t-1.41.07q-1.94,0-1.94-1.66a1.29,1.29,0,0,1,1.43-1.48,6.65,6.65,0,0,1,1.11.14,6.54,6.54,0,0,0,1.11.14q2.35,0,2.35-3.46V15q0-3.41-2.35-3.42a3.77,3.77,0,0,0-1,.09,6.93,6.93,0,0,1-1.25.14,1.34,1.34,0,0,1-1-.44,1.52,1.52,0,0,1-.42-1.08q0-1.61,2-1.61a6.6,6.6,0,0,1,.69,0L33.91,9a29.4,29.4,0,0,0,3,.23,23.24,23.24,0,0,0,3-.23L42,8.71a5.13,5.13,0,0,1,.6,0q2.08,0,2.08,1.61a1.51,1.51,0,0,1-.42,1.08,1.34,1.34,0,0,1-1,.44A7.53,7.53,0,0,1,42,11.66a3.78,3.78,0,0,0-1-.09q-2.35,0-2.35,3.4v17.9q0,2.71.55,3.21a1.84,1.84,0,0,0,1.08.5,29.46,29.46,0,0,0,3,.09h4.06q3.18,0,4.25-.84t1.06-3.39c0-.46,0-1,0-1.59q-.09-1.78-.09-2.14,0-2,1.62-2,1.94,0,1.94,1.85a6.61,6.61,0,0,1,0,.88Zm156.15-5.63A7.86,7.86,0,0,0,205.58,29,11.38,11.38,0,0,0,203,36.15h17.86C220.34,29.45,217.38,26.15,211.89,26.15Zm71,0A7.86,7.86,0,0,0,276.57,29,11.38,11.38,0,0,0,274,36.15h17.86C291.34,29.45,288.38,26.15,282.88,26.15ZM142.78,42.67a4.16,4.16,0,0,0,1.72,3.52A7.34,7.34,0,0,0,149,47.48a10.66,10.66,0,0,0,7-2.75c2.06-1.72,3.09-3.48,3.09-5.19V36.45l-6.18,0C146.13,36.49,142.78,38.55,142.78,42.67Zm154.57,0a4.16,4.16,0,0,0,1.72,3.52,7.34,7.34,0,0,0,4.55,1.29,10.66,10.66,0,0,0,7-2.75c2.06-1.72,3.09-3.48,3.09-5.19V36.45l-6.18,0C300.7,36.49,297.35,38.55,297.35,42.67Zm39-13.31a7.62,7.62,0,0,0-6.48-3.22,7.38,7.38,0,0,0-6.4,3.18,11.87,11.87,0,0,0-2.15,7.38v.56a11.68,11.68,0,0,0,2.1,7.21,8.33,8.33,0,0,0,12.92-.13,12.54,12.54,0,0,0,2.15-7.51A12.32,12.32,0,0,0,336.32,29.37ZM119.09,46.88V17.26h-1V47.91h20.69v-1Zm23.69-4.21a4.16,4.16,0,0,0,1.72,3.52A7.34,7.34,0,0,0,149,47.48a10.66,10.66,0,0,0,7-2.75c2.06-1.72,3.09-3.48,3.09-5.19V36.45l-6.18,0C146.13,36.49,142.78,38.55,142.78,42.67Zm17.34-9.14V47.91h-1V42.8a13.63,13.63,0,0,1-3.78,3.73,11.89,11.89,0,0,1-6.4,2A7.92,7.92,0,0,1,143.85,47a5.16,5.16,0,0,1-2.1-4.33A5.9,5.9,0,0,1,145,37c1.8-1,4.46-1.54,7.9-1.54l6.18,0V33.79c0-5.11-2.53-7.64-7.51-7.64a9,9,0,0,0-5.19,1.37,6.28,6.28,0,0,0-2.83,4.16l-1-.09a7.32,7.32,0,0,1,3.13-4.85,9.8,9.8,0,0,1,5.88-1.63c3,0,5.19.86,6.65,2.58A8.67,8.67,0,0,1,160.12,33.53Zm-1,2.92-6.18,0c-6.78,0-10.13,2.06-10.13,6.18a4.16,4.16,0,0,0,1.72,3.52A7.34,7.34,0,0,0,149,47.48a10.66,10.66,0,0,0,7-2.75c2.06-1.72,3.09-3.48,3.09-5.19Zm22.45-10.73V39.15a8.42,8.42,0,0,1-2.19,6,7.23,7.23,0,0,1-5.45,2.32,6.78,6.78,0,0,1-5.49-2.15,9.37,9.37,0,0,1-1.67-6V25.72h-1V39.33c0,6.1,2.7,9.19,8.2,9.19,3.48,0,6-1.67,7.64-4.94v4.33h1V25.72Zm15.15-.6a7.08,7.08,0,0,0-4.81,1.76,8.55,8.55,0,0,0-2.66,3.78V25.72h-1.07V47.91h1.07V36.19a12.5,12.5,0,0,1,1.72-6.57,6.38,6.38,0,0,1,5.71-3.48,13,13,0,0,1,3.56.51V25.55A11.23,11.23,0,0,0,196.69,25.12Zm15.19,1A7.86,7.86,0,0,0,205.58,29,11.38,11.38,0,0,0,203,36.15h17.86C220.34,29.45,217.38,26.15,211.89,26.15Zm8.37,14.64h1.12a10.5,10.5,0,0,1-2.88,5.32,9.34,9.34,0,0,1-6.61,2.4,9,9,0,0,1-7.25-3.26,12.89,12.89,0,0,1-2.7-8.46,12.52,12.52,0,0,1,2.62-8.11,8.76,8.76,0,0,1,7.34-3.56q5.09,0,7.6,3.48c1.42,2,2.23,4.85,2.4,8.58H203a11.52,11.52,0,0,0,2.53,7.47,8,8,0,0,0,6.4,2.83,8.35,8.35,0,0,0,5.75-2A9.52,9.52,0,0,0,220.26,40.79ZM203,36.15h17.86c-.47-6.7-3.43-10-8.93-10A7.86,7.86,0,0,0,205.58,29,11.38,11.38,0,0,0,203,36.15Zm24.29-19.49V47.91h1V16.66Zm23.44,30.22V17.26h-1V47.91h20.69v-1Zm32.19-20.73A7.86,7.86,0,0,0,276.57,29,11.38,11.38,0,0,0,274,36.15h17.86C291.34,29.45,288.38,26.15,282.88,26.15Zm8.37,14.64h1.12a10.5,10.5,0,0,1-2.88,5.32,9.34,9.34,0,0,1-6.61,2.4,9,9,0,0,1-7.25-3.26,12.89,12.89,0,0,1-2.7-8.46,12.52,12.52,0,0,1,2.62-8.11,8.76,8.76,0,0,1,7.34-3.56q5.09,0,7.6,3.48c1.42,2,2.23,4.85,2.4,8.58H274a11.52,11.52,0,0,0,2.53,7.47,8,8,0,0,0,6.4,2.83,8.35,8.35,0,0,0,5.75-2A9.52,9.52,0,0,0,291.25,40.79ZM274,36.15h17.86c-.47-6.7-3.43-10-8.93-10A7.86,7.86,0,0,0,276.57,29,11.38,11.38,0,0,0,274,36.15Zm23.39,6.52a4.16,4.16,0,0,0,1.72,3.52,7.34,7.34,0,0,0,4.55,1.29,10.66,10.66,0,0,0,7-2.75c2.06-1.72,3.09-3.48,3.09-5.19V36.45l-6.18,0C300.7,36.49,297.35,38.55,297.35,42.67Zm17.34-9.14V47.91h-1V42.8a13.63,13.63,0,0,1-3.78,3.73,11.89,11.89,0,0,1-6.4,2A7.92,7.92,0,0,1,298.42,47a5.16,5.16,0,0,1-2.1-4.33A5.9,5.9,0,0,1,299.58,37c1.8-1,4.46-1.54,7.9-1.54l6.18,0V33.79c0-5.11-2.53-7.64-7.51-7.64A9,9,0,0,0,301,27.52a6.28,6.28,0,0,0-2.83,4.16l-1-.09a7.32,7.32,0,0,1,3.13-4.85,9.8,9.8,0,0,1,5.88-1.63c3,0,5.19.86,6.65,2.58A8.67,8.67,0,0,1,314.69,33.53Zm-1,2.92-6.18,0c-6.78,0-10.13,2.06-10.13,6.18a4.16,4.16,0,0,0,1.72,3.52,7.34,7.34,0,0,0,4.55,1.29,10.66,10.66,0,0,0,7-2.75c2.06-1.72,3.09-3.48,3.09-5.19Zm22.66-7.08a7.62,7.62,0,0,0-6.48-3.22,7.38,7.38,0,0,0-6.4,3.18,11.87,11.87,0,0,0-2.15,7.38v.56a11.68,11.68,0,0,0,2.1,7.21,8.33,8.33,0,0,0,12.92-.13,12.54,12.54,0,0,0,2.15-7.51A12.32,12.32,0,0,0,336.32,29.37Zm3.22,7.47a13.54,13.54,0,0,1-2.36,8.11,8.65,8.65,0,0,1-7.34,3.56c-4.21,0-7-2.1-8.54-6.27V56.41h-1V25.72h1v5.75c1.72-4.25,4.55-6.35,8.54-6.35a8.55,8.55,0,0,1,7.3,3.65A13.15,13.15,0,0,1,339.54,36.84Zm-1.07,0a12.32,12.32,0,0,0-2.15-7.47,7.62,7.62,0,0,0-6.48-3.22,7.38,7.38,0,0,0-6.4,3.18,11.87,11.87,0,0,0-2.15,7.38v.56a11.68,11.68,0,0,0,2.1,7.21,8.33,8.33,0,0,0,12.92-.13A12.54,12.54,0,0,0,338.47,36.84ZM73.88,45c2.67-3.94,3.11-8.29,2.29-12.85a36.39,36.39,0,0,0-3.93-10.69A1.36,1.36,0,0,1,72,20.8c.23-2-1-3.15-2.35-4.26a5.51,5.51,0,0,0,2,4.43,1,1,0,0,1,.29.35A35,35,0,0,1,76,34.69a14.43,14.43,0,0,1-3.71,11.14,25.2,25.2,0,0,1-9.17,6.09A99.94,99.94,0,0,1,50.47,56a43.73,43.73,0,0,0-8.58,2.89.87.87,0,0,1-.63,0c-.77-.31-1.49-.74-2.28-1-3.34-1-6.69-1.95-10-2.9a60.53,60.53,0,0,1-11.57-4.28A20.92,20.92,0,0,1,10,44.8C7.31,41.16,6.71,37,7.42,32.66a37.62,37.62,0,0,1,3.93-11.3,1.41,1.41,0,0,1,.36-.44,5.81,5.81,0,0,0,1.94-4.41,4.87,4.87,0,0,0-1.06.86,4.61,4.61,0,0,0-1.38,3A2.49,2.49,0,0,1,11,21.53,34.38,34.38,0,0,0,6.83,34a16.24,16.24,0,0,0,1.71,9.7,18.59,18.59,0,0,0,6.53,6.74,48.23,48.23,0,0,0,12.15,5.28C31,56.83,34.76,58,38.53,59.15a12.61,12.61,0,0,1,1.4.6A46.06,46.06,0,0,0,36.3,63a14.29,14.29,0,0,0-1.67,2.87.52.52,0,0,0,.06.49c.41.29.86.52,1.17.71a16.38,16.38,0,0,1,1.06-2.3,13.54,13.54,0,0,1,4.49-3.93.59.59,0,0,1,.5,0,17.67,17.67,0,0,1,1.77,1.2c1.64,1.33,3.23,2.72,3.52,5.08.43-.25.81-.48,1.19-.69s.36-.34.21-.61a15.66,15.66,0,0,0-1.68-2.87,46.18,46.18,0,0,0-3.61-3.3,11.37,11.37,0,0,1,1.34-.6q4.74-1.48,9.49-2.91a58.71,58.71,0,0,0,12.74-5.07A20.58,20.58,0,0,0,73.88,45ZM54,49.56a17.24,17.24,0,0,0-5.77,2.83,9.47,9.47,0,0,0-1.65,1.68,2.84,2.84,0,0,0-.62,2.42C49.41,56.31,53.51,52.8,54,49.56ZM37.3,56.47a.38.38,0,0,0,0-.1,2.64,2.64,0,0,0,0-.29A4,4,0,0,0,35.74,53a16.56,16.56,0,0,0-6.27-3.34.74.74,0,0,0-.2,0C30,53.07,34.1,56.53,37.3,56.47Zm-9,.08A6.11,6.11,0,0,0,22,59.65c-.19.37-.31.77-.5,1.22.71,0,1.3,0,1.89,0a7.41,7.41,0,0,0,4.29-1.49,2.73,2.73,0,0,0,1.1-2.31C28.76,56.74,28.64,56.61,28.3,56.55Zm26.57,0a.59.59,0,0,0-.32.44,2.63,2.63,0,0,0,1.35,2.57,9.26,9.26,0,0,0,5.79,1.28c0-.08,0-.12,0-.15A6,6,0,0,0,54.87,56.59Zm-19.4,4.32a4.18,4.18,0,0,0,.62-1.52c.12-.41-.07-.64-.53-.75-2.83-.68-5.85,1.61-6.17,4.83C31.75,63.27,33.9,62.76,35.48,60.91Zm12.16-2.26c-.38.08-.51.24-.49.62A2.75,2.75,0,0,0,48,61.17a8.88,8.88,0,0,0,5.91,2.28c-.06-.33-.09-.53-.14-.74A5.28,5.28,0,0,0,47.64,58.65Zm6-4.17c3.68-.35,7-3.73,6.62-6.71a16,16,0,0,0-4,2.38A6.91,6.91,0,0,0,53.87,53,9.32,9.32,0,0,0,53.6,54.49Zm-24.05,0a2.55,2.55,0,0,0-.36-1.91,9,9,0,0,0-3-3c-1-.67-2.09-1.24-3.22-1.89A7.16,7.16,0,0,0,29.54,54.48Zm-8.77-.41A6.3,6.3,0,0,0,15,55.37a17.33,17.33,0,0,0-1.59,1.74c.77.15,1.33.3,1.9.36a7.06,7.06,0,0,0,4.33-.64,2.93,2.93,0,0,0,1.58-2A.54.54,0,0,0,20.78,54.07Zm41.49.11a.62.62,0,0,0-.25.53,2.68,2.68,0,0,0,1.41,2c2,1.15,4.06.93,6.21.43A6.32,6.32,0,0,0,62.26,54.18Zm6.84-3.61a.57.57,0,0,0-.1.52,2.56,2.56,0,0,0,2,1.57c2.25.48,4.13-.4,6-1.63C75.15,49.28,71.29,49.19,69.1,50.57Zm-54.74.15c-2-1.59-6.38-1.44-8.05.31a8,8,0,0,0,5.43,1.73A2.72,2.72,0,0,0,14.36,50.72ZM65.5,45.24c-.38.31-.72.57-1,.85a11.8,11.8,0,0,0-3.26,4.14A3.06,3.06,0,0,0,61,52.39,5.76,5.76,0,0,0,65.5,45.24ZM22.25,52.4c.71-2.05-2.13-5.55-4.47-7.05C16.83,47.75,18.57,51.77,22.25,52.4ZM9,45.31C7.61,43,4.17,41.67,1.86,42.42a7.4,7.4,0,0,0,4.71,3.8A2.36,2.36,0,0,0,9,45.31Zm65.19,0a2.24,2.24,0,0,0,1.81.95c1.84,0,4.58-2,5.32-3.9C79.16,41.6,75.65,43,74.24,45.33ZM15.68,49.26c.8-1.61,0-5.63-1.49-7.23A4.46,4.46,0,0,0,15.68,49.26ZM67.22,48a6.63,6.63,0,0,0,.3,1.31A4.46,4.46,0,0,0,69,42,12.39,12.39,0,0,0,67.22,48ZM4.92,38.46a1.64,1.64,0,0,0,1.58-.19,6.39,6.39,0,0,0-5.08-5.13,7.09,7.09,0,0,0,2,4.45A5.09,5.09,0,0,0,4.92,38.46Zm72.16-1.31a6.85,6.85,0,0,0-.26,1.15c.45.08.89.17,1.34.22a1,1,0,0,0,.49-.15c2.12-1,2.78-3,3.21-5.14a1.16,1.16,0,0,0-.22,0l-.23,0A6.37,6.37,0,0,0,77.08,37.15Zm-64.72.49c-2.83,1.08-3.83,5-1.75,7C12.37,42.56,12.47,40.15,12.36,37.64Zm58.53-.08c-.07,2.57,0,5,1.78,7.07a3.76,3.76,0,0,0,1-3.48A5.05,5.05,0,0,0,70.89,37.56ZM71,32.39c.38,2.53,2.6,5.55,4.23,5.78C76.31,36,73.93,32.72,71,32.39ZM8,38.19c1.72-.14,3.78-3.45,4.23-5.77C9.44,32.71,7,35.8,8,38.19Zm61.4-11.55a10.27,10.27,0,0,0,3.88,4.26,2.46,2.46,0,0,0,1.82.32C75.21,28.51,72,26.49,69.41,26.64ZM8.17,31.2c2.13.32,4.76-2.65,5.57-4.58C11.1,26.33,8.07,28.81,8.17,31.2ZM78.31,30a5,5,0,0,0,1.15-2.72c.12-.78.1-1.57.14-2.42-2.27.89-3.86,3.87-3.26,6A2.25,2.25,0,0,0,78.31,30Zm-73.14.21a2,2,0,0,0,1.76.61,5.58,5.58,0,0,0-3.18-5.93,16.33,16.33,0,0,0,0,2.22A4.9,4.9,0,0,0,5.17,30.25Zm5.21-6c1.6.85,4.78-1.36,6.15-3.41C13.66,20.43,10.67,22.1,10.38,24.26Zm60.94.07a9,9,0,0,0,1.64.1,5.37,5.37,0,0,0-6.19-3.54A9.1,9.1,0,0,0,71.32,24.32ZM9.37,23.85a5.2,5.2,0,0,0-1.75-6.14.87.87,0,0,0-.1.19,7.63,7.63,0,0,0-.1,3.71A2.64,2.64,0,0,0,9.37,23.85Zm66.18-1.41a7.12,7.12,0,0,0,.14-4.73c-1.84,1-2.76,4.14-1.83,6.13A2.2,2.2,0,0,0,75.56,22.45Z"/></clipPath><linearGradient id="linear-gradient" y1="39.53" x2="341.78" y2="39.53" gradientUnits="userSpaceOnUse"><stop offset="0" stop-color="#ee0f6f"/><stop offset="0.2" stop-color="#f13c75"/><stop offset="1" stop-color="#f89482"/></linearGradient></defs><title>Asset 5</title><g id="Layer_2" data-name="Layer 2"><g id="Layer_1-2" data-name="Layer 1"><line class="cls-2" x1="97.57" y1="0.9" x2="97.57" y2="69.07"/><g class="cls-3"><rect class="cls-4" width="341.78" height="79.07"/></g><path class="cls-5" d="M142.81,42.68a4.16,4.16,0,0,0,1.72,3.52,7.34,7.34,0,0,0,4.55,1.29,10.66,10.66,0,0,0,7-2.75c2.06-1.72,3.09-3.48,3.09-5.19V36.46l-6.18,0C146.16,36.5,142.81,38.56,142.81,42.68Z"/><path class="cls-5" d="M211.95,26.18a7.86,7.86,0,0,0-6.31,2.88A11.38,11.38,0,0,0,203,36.18h17.86C220.41,29.49,217.44,26.18,211.95,26.18Z"/><path class="cls-5" d="M282.82,26.18a7.86,7.86,0,0,0-6.31,2.88,11.38,11.38,0,0,0-2.62,7.12h17.86C291.28,29.49,288.32,26.18,282.82,26.18Z"/><path class="cls-5" d="M297.31,42.74A4.16,4.16,0,0,0,299,46.26a7.34,7.34,0,0,0,4.55,1.29,10.66,10.66,0,0,0,7-2.75c2.06-1.72,3.09-3.48,3.09-5.19V36.52l-6.18,0C300.66,36.56,297.31,38.62,297.31,42.74Z"/><path class="cls-5" d="M336.38,29.46a7.62,7.62,0,0,0-6.48-3.22,7.38,7.38,0,0,0-6.4,3.18,11.87,11.87,0,0,0-2.15,7.38v.56a11.68,11.68,0,0,0,2.1,7.21,8.33,8.33,0,0,0,12.92-.13,12.54,12.54,0,0,0,2.15-7.51A12.32,12.32,0,0,0,336.38,29.46Z"/></g></g></svg>