<svg xmlns="http://www.w3.org/2000/svg" viewBox="0 0 203.42 143.14"><defs><style>.cls-1{fill:#f5fafa;}</style></defs><title>complete-icon</title><g id="Layer_2" data-name="Layer 2"><g id="Layer_1-2" data-name="Layer 1"><g id="wyiikt"><path class="cls-1" d="M12.5,58.27l7.29,0,.38,0,.11-.12a.85.85,0,0,1,0-.15s0,0,.06-.06l0,0c0-.48,0-1,0-1.45q0-23.63,0-47.25V8.41a2.24,2.24,0,0,1,.7-.25q11.54,0,23.08,0a1.83,1.83,0,0,1,.35.07l.31,0h.65c.79,0,1.58,0,2.37,0h99.85c.21,0,.42,0,.64,0l.76,0,.36,0c.88,0,1.76-.08,2.64-.08h20.35c.33,0,.66,0,1.07.05a5.81,5.81,0,0,1,.08.7q0,15.15,0,30.29c0,.15,0,.3,0,.45a.13.13,0,0,1,0,.16.11.11,0,0,1,0,.13l.3,0h7.68a.15.15,0,0,1,.06-.13q0-17.86,0-35.72a3.47,3.47,0,0,1,.06-.45L181,1.84A5.09,5.09,0,0,0,176.65,0c-6.29,0-12.58,0-18.87,0h-1.1c-.73,0-1.46,0-2.18,0H38.42c-.55,0-1.09,0-1.64-.06L36,0c-.33,0-.67,0-1,0H16.54a3.94,3.94,0,0,0-4.08,2.73,8,8,0,0,0-.26,2.34c0,6.41,0,12.82,0,19.23q0,16.41,0,32.82A4.34,4.34,0,0,0,12.5,58.27Z"/><path class="cls-1" d="M41.2,113.35q0-21.52,0-43l0-.37A6.76,6.76,0,0,0,34,64.27H30.72l-13.09-.06c-.3,0-.6,0-.9,0h-10a5.39,5.39,0,0,0-3.41,1h0A5.5,5.5,0,0,0,.44,68.83h0A14.4,14.4,0,0,0,0,71.29q0,26.46,0,52.92a15.93,15.93,0,0,0,.34,2.32.13.13,0,0,0,.07.16h0a6.38,6.38,0,0,0,3,3.82l2.91.77,3,0h0c.72,0,1.45.06,2.17.06l12.37,0h2.92c2.84,0,5.69.09,8.52-.05a10,10,0,0,0,2.82-1h0l.33,0h0l.89-.76.54-.61a.07.07,0,0,1,.06-.08l1.31-3.46-.06-.19v-.55l.07-7.66v-.2l0-.51,0-1C41.21,114.56,41.2,114,41.2,113.35ZM38,117.67c0,.39,0,.78-.08,1.17v.92q0,2.19,0,4.37a.18.18,0,0,1,.06.16l-.48.05-.91-.08H34.94l0,.08h-.38l0-.08H34l-.73.08h-.92c-.36,0-.73,0-1.09,0H5.57c-.55,0-1.09,0-1.64,0H3.38a.14.14,0,0,0-.13,0c0-.52,0-1,0-1.55q0-25,0-50c0-.36,0-.72-.06-1.09l.21-.41h0c.21,0,.42,0,.63,0H36c.21,0,.42,0,.63,0a.4.4,0,0,1-.07.13l.63-.12h.18l.64.16c0,.42,0,.85,0,1.27Q38,95.17,38,117.67Z"/><path class="cls-1" d="M203.4,120.45q0-31.39,0-62.77c0-1.75-.23-3.5-.36-5.26l-.16-.37-2.38-3.65h0c-2.33-2-5.08-2.57-8.11-2.56-16.22.07-32.44,0-48.66.06A8.5,8.5,0,0,0,139.34,47h0l-.55.15v.23q0,26.26,0,52.52,0-26.26,0-52.52a26.11,26.11,0,0,0-2.52,2.16,10.29,10.29,0,0,0-2.06,4.74q0,12,0,24c0,.64,0,1.27-.05,1.91a8.6,8.6,0,0,1,.09.9q0,8,0,15.94c0,1.64,0,3.28.06,4.91l-.1,0,.11.39a.17.17,0,0,0,0,.17,2.27,2.27,0,0,0-.06.36q0,9.76,0,19.51a9.38,9.38,0,0,0,.27,1.59l.08.43.21,1,1.27,2v.05h0a8.45,8.45,0,0,0,4.24,3.35c.65.25,1.31.46,2,.68l1.06,0c2.18,0,4.36-.09,6.55-.1q9.47,0,18.94,0a1.13,1.13,0,0,1,.26.06c.48,0,1,0,1.45,0h21.61c.33,0,.67,0,1,0l1.66-.05.54-.1.21,0,.72-.1,0,0h.05a10.16,10.16,0,0,0,5.1-3.47,3.26,3.26,0,0,0,.21-.39.11.11,0,0,0,.08-.13,8.24,8.24,0,0,0,1.61-4.65C203.44,121.79,203.4,121.12,203.4,120.45Zm-6.06-.52H196.1c-.24,0-.48,0-.73,0H157.58c-.3,0-.6,0-.91,0h-.54l-15.48,0a1,1,0,0,1-.25-.06c0-.06-.1-.11-.1-.16q0-7.92,0-15.84v-.41l0-.35c0-.21-.05-.42-.05-.63q0-22.64,0-45.28l.91,0h55.22a6.8,6.8,0,0,1,1,.14c0,.33,0,.67,0,1q0,29.57,0,59.14c0,.39,0,.79,0,1.18l.09.18Zm3.61,6.35-.08,0,.08,0Z"/><path class="cls-1" d="M126.19,109h2a1.54,1.54,0,0,0,.17-.48c0-2,0-4.07,0-6.11l.08-.55h-.11v-.92H59.12l-3.92,0-.21,0-.33.07-.17-.09H47.24c0,2.23,0,4.32,0,6.41,0,.56.08,1.13.12,1.69l.93,0c.39,0,.79,0,1.18,0H125.1Z"/><polygon class="cls-1" points="39.29 129.39 39.29 129.39 39.29 129.39 39.29 129.39"/><polygon class="cls-1" points="130.94 142.01 130.9 141.98 130.9 141.98 130.9 141.98 130.94 142.01"/><polygon class="cls-1" points="62.54 141.63 62.54 141.63 62.53 141.63 62.54 141.63"/><path class="cls-1" d="M132,138.53l0,0,0-.05-.15-.62a4.68,4.68,0,0,0-4.75-2.77q-30.05.07-60.11,0c-.49,0-1,0-1.46,0a4,4,0,0,0-3.26,6c.09.18.16.38.24.57a5.34,5.34,0,0,0,4.22,1.51q29.94,0,59.89,0A6.46,6.46,0,0,0,130.9,142a5.31,5.31,0,0,0,1.16-3.05Z"/><polygon class="cls-1" points="79.32 115.59 79.32 115.59 79.33 115.58 79.32 115.59"/><path class="cls-1" d="M82.16,129.12c9.84,0,19.68,0,29.52,0,.57,0,1.15-.07,1.72-.11a3.25,3.25,0,0,0,2.06-3.31c0-2.58,0-5.17,0-7.75a3.21,3.21,0,0,0-.25-1.23,3,3,0,0,0-5.77,1.17c0,1.69,0,3.39,0,5.11h-25c0-1.56,0-3,0-4.53,0-2.33-1-3.37-3.3-3.59l-.55.09-.19.06-.31.1,0,0-.78.5a4.62,4.62,0,0,0-1,3.3c.06,2.19,0,4.38,0,6.57a14.76,14.76,0,0,0,.41,2.3h0A3.94,3.94,0,0,0,82.16,129.12Z"/><path class="cls-1" d="M31.77,76.56c-7.36,0-14.71,0-22.07,0-.38,0-.76.06-1.17.09v32.28H32.66c0-.3.05-.53.05-.77q0-15.36,0-30.73C32.74,76.66,32.44,76.55,31.77,76.56Z"/><path class="cls-1" d="M30.57,116H10.79a2.07,2.07,0,0,0-2.09,1.18A2,2,0,0,0,10.66,120c3.31,0,6.62,0,9.93,0s6.5,0,9.75,0a3.21,3.21,0,0,0,1.39-.29,1.88,1.88,0,0,0,.91-2.18A2,2,0,0,0,30.57,116Z"/><path class="cls-1" d="M128.35,88.69V86.58l-2.44,2.11Z"/><path class="cls-1" d="M108.8,61.52a15.92,15.92,0,0,0,1.83-5.86A14,14,0,0,0,109.07,48c-.4-.78-.94-1.49-1.41-2.24h0l-1.16-1c0,.38.08.75.11,1.13,0-.38-.08-.75-.11-1.13l-.29-.22-.45-.65a16.16,16.16,0,0,0-5.57-2.74,13.7,13.7,0,0,0-9.59,1.17c-.34.18-.71.32-1.06.47l-.39.53-.55.3-.53.27h0l-.19.16a.12.12,0,0,1-.13,0l-1.13,1.1h0l-.35.4v0l-.2.21h0l-.27.41-.05.06-.44.49-.53,1-.16.17a10,10,0,0,1-.32,1,13.65,13.65,0,0,0,4.25,16.5l1.86,1.22a13.39,13.39,0,0,0,9.28,1.31,36.41,36.41,0,0,0,3.6-1.21.08.08,0,0,1,0-.09l.25,0,.18-.41,2.42-1.73.51-.24,0-.19a.23.23,0,0,0,0-.14h0l.34-.06h0l.93-1.09h0l.55-.78Zm-5.68-1.82A24,24,0,0,1,101,61.55h-.17a.23.23,0,0,0-.05.14l-.32.21L99,62.26l-.9.23-1.29.1-.08,0-.09,0-1.1-.14-.88-.13a6.18,6.18,0,0,0,0,.63,6.19,6.19,0,0,1,0-.63.43.43,0,0,0,0-.12l-.47,0-.09-.09A8,8,0,0,1,89,56.25q0-1.73,0-3.47h0a8.07,8.07,0,0,1,4.17-5.49,8.8,8.8,0,0,1,.91-.37l.06-.12.53-.18h0l.54,0,.55-.11a8.35,8.35,0,0,1,4.51.56l.55.16.12.26C105.24,49.54,106.44,56,103.13,59.7Z"/><path class="cls-1" d="M193,61.68H171.53v32.1H193Z"/><path class="cls-1" d="M166.11,61.65H144.69V93.78h21.42Z"/><path class="cls-1" d="M191.41,110.15a11.1,11.1,0,0,0-1.46,0H152.48l-5.47,0-.73,0c-1.36.47-1.91,1.22-1.73,2.36s1,1.68,2.39,1.7l4.08,0h.56c.27,0,.55,0,.82,0h37.75c.39,0,.79,0,1.18,0a2,2,0,0,0,1.81-1.94A2,2,0,0,0,191.41,110.15Z"/><path class="cls-1" d="M146.28,104.39l.17,0c.36,0,.73,0,1.09,0h42.87c.48,0,1-.06,1.45-.09a2.35,2.35,0,0,0,1.26-2.48l-1.41-1.45-1.1-.09c-.36,0-.72.07-1.08.07H147a2.2,2.2,0,0,0-2.2,1C144.09,102.57,144.67,103.8,146.28,104.39Z"/><path class="cls-1" d="M134.23,40.88a4.42,4.42,0,0,0,4.52,0,.82.82,0,0,0,.05-.13l.53-.21a35.5,35.5,0,0,1,4.31-.55c6.57-.06,13.14,0,19.71,0,.44,0,.89,0,1.33-.06V20.28h-4.82l-20.53,0-.54,0v0H126.17l2.8,2.93.28.07,1.59,0-1.59,0,.41.52L131,25.36l.2.38h0l.73.74h0l1.78,2.14.15.27a13.11,13.11,0,0,1,.24,6.75h0l-.73,1.15c-.26.43-.55.86-.78,1.3a6.16,6.16,0,0,0-.31.89l.74,1.74h0l1,.22Z"/><path class="cls-1" d="M47.24,87.73c0,.32,0,.64,0,1l1.19.11,6.06-.08.53.1a1.21,1.21,0,0,1,0-.14h0a3.55,3.55,0,0,0,.45.06H67.3a3,3,0,0,0,.45-.08c-1.35-1.31-2.68-2.5-3.88-3.81-1-1.12-1.9-2.39-2.84-3.59l-1-1.85a5.76,5.76,0,0,1-.49-1.32c-.19-1.68-.4-3.37.55-4.93l.09-.84h0l1-1.15h0l.39-.54.07-.37a.19.19,0,0,1,0-.15A9.89,9.89,0,0,0,61,68.7c-.17-.26-.54-.39-.82-.58l0,0A10,10,0,0,1,55,65.73v-.29l-.37-.06L53.2,63a25.74,25.74,0,0,1-.86-2.92,32.59,32.59,0,0,1,.15-12,17.43,17.43,0,0,1,.95-2.6l1.23-2L55,43.4v-.27a9.59,9.59,0,0,1,4.75-2.22l.38,0c.26-.18.63-.29.77-.54.59-1.06,1-2.16-.2-3.13a3.69,3.69,0,0,1-.42-.47l-.15-.45-.06-.24,0-.19h0l0-.47-.21,0a8.89,8.89,0,0,1,0-5.63,1.85,1.85,0,0,1,.29-.43l.25-1c0-.67,0-1.34,0-2,0,.67,0,1.34,0,2l.56-.7a3,3,0,0,1-.29-1.23,3,3,0,0,0,.29,1.23l.14-.05h0L62,26.48l.15-.37.55-.56L64,24l.75-.71a.39.39,0,0,1,0-.15l2.88-2.61a18.19,18.19,0,0,0-3.34-.2L55,20.35a1,1,0,0,1,0-.12l-.38.12c-.24,0-.48-.06-.72-.06H29.74a5.61,5.61,0,0,0-.59.06v37.9h5.09a12.67,12.67,0,0,1,13,12.89C47.27,76.67,47.23,82.2,47.24,87.73Z"/><path class="cls-1" d="M128.08,44.52h0l-.25-.5v-.73c-.45-.94-.89-1.89-1.36-2.81-.37-.72-.78-1.42-1.17-2.13-.82,1-1.64,2.07-2.47,3.1.83-1,1.65-2.07,2.47-3.1a.76.76,0,0,0,0-.18l-.06-.37.59-.89h0l.21-.3c0-.11,0-.22,0-.33,0,.11,0,.22,0,.33l2.49-3.3q0-.12,0-.24l0-.19-1.1-2.7L127,29.6c-1.73-1.7-3.45-3.41-5.19-5.09a7.12,7.12,0,0,0-1.2-.77l-.12-.31a2.73,2.73,0,0,0-3.21-.21v.28l.81.14-.81-.14-3.65,2.78-.34,0-5.89-2.7-.79-.38A1.31,1.31,0,0,1,105,21.9c-.11-1.25-.26-2.51-.39-3.76l-.12-.06-.16-.34-.8-1.25a5,5,0,0,0-1.21-.56,32,32,0,0,0-10.93,0,6,6,0,0,0-1.76,1l-.16.55-.18.53-.13.06c-.13,1.23-.24,2.46-.4,3.68s-.58,1.46-1.78,1.6L83,25c.69,0,1.38,0,2.08,0-.69,0-1.38,0-2.08,0l-.46.24a12.91,12.91,0,0,0-1.45.7,1,1,0,0,1-1.36-.06c-.9-.76-1.85-1.45-2.79-2.16l-.6,0h0l.6,0-.29-.29a2.89,2.89,0,0,0-3.22-.21l-.41.52a4.87,4.87,0,0,0-.59.42L67,29.46l-.44.5a.71.71,0,0,1-.1.25c-1.64,1.7-1.44,3.27.23,5.07a13,13,0,0,1,1,1.38l.69.8.05.36.21.21L66.4,42.19l0,.71-.24.4c-.25.72-.54,1.42-.73,2.15a1.06,1.06,0,0,1-1.06.91c-1.18.12-2.35.28-3.53.42l-.23.08,0,0-.48.07v0a3,3,0,0,0-1.85,2.4,28.27,28.27,0,0,0,0,10.18,2.89,2.89,0,0,0,1.66,2.32l.19.24h.56q0-7,0-13.92,0,7,0,13.92c1.29.18,2.58.34,3.86.58a1.29,1.29,0,0,1,.82.64q1.56,3.57,3,7.19a1.18,1.18,0,0,1-.08,1c-.68,1-1.43,2-2.17,2.92a2.88,2.88,0,0,0,0,4l1.52,1.92.8.64,0,.28.31.23c1.49,1.33,2.94,2.72,4.49,4a2.74,2.74,0,0,0,3.6-.07c1-.77,1.92-1.59,2.93-2.31a1.28,1.28,0,0,1,1-.14q3.58,1.44,7.12,3a1.4,1.4,0,0,1,.73.86c.21,1.13.32,2.28.42,3.43a3,3,0,0,0,2.46,2.88,28.64,28.64,0,0,0,10.49,0,2.93,2.93,0,0,0,2.55-2.88c.09-1.09.28-2.16.37-3.25,0-.65.36-.91.94-1.14,2.34-.92,4.64-1.94,7-2.88a1.26,1.26,0,0,1,1,.12c1,.73,2,1.53,2.92,2.32a2.92,2.92,0,0,0,3.71.06c1.5-1.28,2.92-2.64,4.38-4l.32-.21,0-.34c.1,0,.24-.07.3-.14.76-.84,1.51-1.69,2.26-2.54h0l.48-1a4.58,4.58,0,0,0-1.48-3.91c-.48-.5-.83-1.12-1.27-1.66a1.11,1.11,0,0,1-.07-1.47,19.31,19.31,0,0,0,2.77-12.54c0-.19-.33-.34-.51-.51-.89.3-1.79.57-2.66.91a2.91,2.91,0,0,0-1.75,2.16,24.19,24.19,0,0,1-3.24,7.95c-1.57,2-1,4,.3,5.84l1.63,2.45-3,3-5.5-2.85h-.74a7.58,7.58,0,0,0-1.17.49,30.42,30.42,0,0,1-8.3,3.62,9.78,9.78,0,0,0,1.15.14,9.8,9.8,0,0,1-1.15-.14l-.92.35h0l-.74.16-1.5,2h0l-.28,0,0,.37-.07.88h0l-.55,2.72c0,1,.1,2.07.11,3.1,0-1-.08-2.06-.11-3.1-.21.2-.41.56-.63.57-1.35.05-2.71,0-4,0-.35-1.5-.63-2.92-1-4.32a3.65,3.65,0,0,0-3-2.79,24.84,24.84,0,0,1-7.94-3.27c-.51-.31-1.08-.54-1.62-.81l-.92,0-5.47,2.82-3-2.94c.84-1.38,1.6-2.54,2.28-3.75a3.71,3.71,0,0,0-.18-4.19,22.28,22.28,0,0,1-3.28-7.85,3.68,3.68,0,0,0-2.85-3.07c-1.11-.31-2.25-.47-3.37-.76-.29-.07-.73-.35-.75-.55a32.34,32.34,0,0,1,0-3.63c0-.23.38-.58.64-.64,1.32-.34,2.66-.61,4-.9l.28-.1.62-.32a.1.1,0,0,1,.12-.07v0l.32-.24.07,0-.07,0,.83-1.88,0,0,0,0,.26-.4a3.73,3.73,0,0,1-.51-.49,3.73,3.73,0,0,0,.51.49l2.22-5.64V42l.31-.38,1.54-2.72.06-.3,0-.24-.08-.74-1.14-2.37c-.45-.71-.88-1.44-1.37-2.12-.28-.39-.31-.65,0-1,.9-.88,1.78-1.8,2.66-2.7a.09.09,0,0,0,.12-.05l.77.45c1.16.71,2.28,1.48,3.48,2.1A2.48,2.48,0,0,0,82,31.85H82A31.47,31.47,0,0,1,91.49,28a2.78,2.78,0,0,0,2-2c.32-.91.54-1.85.8-2.78,0-.21.1-.41.13-.62.26-1.54.26-1.55,1.81-1.57.73,0,1.45,0,2.18,0s1,.28,1,1a6.92,6.92,0,0,0,.16,1.16c.3,1,.53,2,.92,3A2.49,2.49,0,0,0,102.64,28l.38.11h0a29.87,29.87,0,0,1,8.65,3.73,2.64,2.64,0,0,0,2.69.2c1.11-.54,2.18-1.19,3.24-1.82.41-.24.77-.57,1.41-1.05.87,1,1.69,2,2.57,2.87.4.42.35.69.07,1.16-.86,1.45-1.64,2.95-2.46,4.43v1.11l2.14,3.94h0l.21.27,0,.72a3.16,3.16,0,0,1,.41.65c.56,1.67,1.09,3.35,1.64,5l.16.37.18.36.59.71,3.91,1.2c.87-1.8,1.64-3.4,2.4-5a1.43,1.43,0,0,0,.06-.43C128.62,46.38,128.62,46.38,128.08,44.52Zm-55-8.79-.57.83Zm20.5-11.35c0-.25-.07-.52-.09-.78l-.55,0-.32.3.32-.3H91l-1.24-.08v-.12h3.89s0,0,.07,0l-.16.15C93.55,23.85,93.62,24.13,93.62,24.38Zm12.52-.85-.07,0a.38.38,0,0,1,.08-.06s0,0,.05,0ZM116,26v0h0a1,1,0,0,1,0-.19A.6.6,0,0,0,116,26Z"/></g></g></g></svg>