<svg xmlns="http://www.w3.org/2000/svg" viewBox="0 0 186.21 177.38"><title>headphones-icon</title><g id="Layer_2" data-name="Layer 2"><g id="Layer_1-2" data-name="Layer 1"><path d="M186.21,107.29c-.5,2.23-.84,4.52-1.53,6.69-1.85,5.76-5.36,10.14-11.43,11.64a33.58,33.58,0,0,1-8.13.45c-1.66,0-2.3.57-2.64,2.19-1.78,8.46-4.37,16.64-8.9,24.09-5,8.24-11.69,14.4-21.37,16.55a48.13,48.13,0,0,1-8.47.89c-3.69.15-7.4.08-11.1,0a2.84,2.84,0,0,0-2.81,1.51,11.48,11.48,0,0,1-10,6c-4.54.11-9.1.15-13.64-.12-6.06-.36-10.74-5.55-11-11.78-.22-5.92,4.34-11.7,10.23-12.23a111.43,111.43,0,0,1,15.08-.19,11.11,11.11,0,0,1,9.28,5.91,3.29,3.29,0,0,0,3.24,1.8c3.7-.06,7.4,0,11.1,0,8.58,0,15.13-3.8,20-10.66s7.25-14.46,9.11-22.41c.24-1-.19-1.45-1.21-1.48-1.7,0-3.4,0-5.08-.22a8,8,0,0,1-7-7.24c-.2-2.35-.16-4.73-.16-7.09q0-20.38,0-40.77c0-5.88,2.31-8.62,8.12-9.69,1.4-.26,1.22-1.16,1.09-2a52.12,52.12,0,0,0-4.37-14.94q-10.37-21.67-33.3-28.93C104.24,13,96.9,12.87,89.54,13a53.55,53.55,0,0,0-51.6,41.35c-.35,1.47-.63,3-.89,4.46-.22,1.29,0,2.14,1.65,2.37a8.18,8.18,0,0,1,7.47,8c.15,2.05.06,4.12.06,6.18q0,20.29,0,40.59a16.79,16.79,0,0,1-.32,3.79,7.69,7.69,0,0,1-7.08,6.11c-8,.22-16,.46-24,0-6.87-.38-11-5-13.17-11.17A25.05,25.05,0,0,1,0,106.59c0-8.66.08-17.34.65-26A25.17,25.17,0,0,1,6.51,65.8,12.37,12.37,0,0,1,16.86,61c1.51.06,3-.05,4.55,0S23.64,60.55,24,59c1.3-5.59,2.28-11.32,4.28-16.67,5.33-14.23,14.88-25.12,27.87-33C68.69,1.79,82.42-.45,96.84.07A68.38,68.38,0,0,1,124.92,6.7a65.66,65.66,0,0,1,30.73,30.6,64.06,64.06,0,0,1,6.23,21c.31,2.57.61,2.7,3.25,2.8s5.65-.08,8.28.63c4.66,1.26,7.27,5,9.23,9.18a39.3,39.3,0,0,1,3.19,12.63c.08.77.24,1.52.36,2.29Z"/></g></g></svg>