<svg xmlns="http://www.w3.org/2000/svg" viewBox="0 0 119.95 119.95"><title>step3</title><g id="Layer_2" data-name="Layer 2"><g id="Layer_1-2" data-name="Layer 1"><path d="M38.3,28.18c-2.86,0-5.5-1.54-5.5-5.5s2.64-5.5,5.5-5.5H76.14a10.76,10.76,0,0,1,11,11V49.3c0,4.4-.88,7.59-4.29,10.67,3.41,3.08,4.29,6.27,4.29,10.67V91.77a10.76,10.76,0,0,1-11,11H38.3c-2.86,0-5.5-1.54-5.5-5.5s2.64-5.5,5.5-5.5H76.14V73.5c0-6.16-2.42-8-5.5-8H49.08c-2.86,0-5.5-1.54-5.5-5.5s2.64-5.5,5.5-5.5H70.64c3.08,0,5.5-1.87,5.5-8V28.18Z"/><path d="M60,119.95a60,60,0,1,1,60-60A60,60,0,0,1,60,119.95ZM60,6a54,54,0,1,0,54,54A54,54,0,0,0,60,6Z"/></g></g></svg>