<svg xmlns="http://www.w3.org/2000/svg" viewBox="0 0 119.95 119.95"><title>step2</title><g id="Layer_2" data-name="Layer 2"><g id="Layer_1-2" data-name="Layer 1"><path d="M43.91,91.76H81.75c2.86,0,5.5,1.54,5.5,5.5s-2.64,5.5-5.5,5.5H32.91V66.9c0-8.25,4.18-12.43,12.43-12.43H76.25V28.18H38.41c-2.86,0-5.5-1.54-5.5-5.5s2.64-5.5,5.5-5.5H74.93c3.63,0,6.16.55,8.91,3.08,3.08,2.86,3.41,5.83,3.41,9.79V52.6c0,4-.33,6.93-3.41,9.79-2.75,2.53-5.28,3.08-8.91,3.08h-31Z"/><path d="M60,119.95a60,60,0,1,1,60-60A60,60,0,0,1,60,119.95ZM60,6a54,54,0,1,0,54,54A54,54,0,0,0,60,6Z"/></g></g></svg>