<svg xmlns="http://www.w3.org/2000/svg" viewBox="0 0 357.17 357.2"><defs><style>.cls-1{fill:#373737;}</style></defs><title>ux-icon</title><g id="Layer_2" data-name="Layer 2"><g id="Layer_1-2" data-name="Layer 1"><path class="cls-1" d="M283.31,283.82l-.1,0,0,.09Z"/><path class="cls-1" d="M291.42,259.58a5.52,5.52,0,0,1,2.92-2.88c4.59-1.74,9.3-3.17,14-4.71l10.16-5-2-2-6-6.06-3.93-4-6.06-6.07L296.5,225l-6.07-6.09-3.9-3.92-6.09-6.11-3.88-3.9-6.11-6.12-3.86-3.89-6.13-6.14L256.64,185l-6.23-6.25-3.44-3.5-6.81-6.84L237,165.21l-6.83-6.86L227,155.2l-6.84-6.87-3.13-3.14-6.85-6.89-3.12-3.13-6.87-6.89-3.11-3.12-6.88-6.9-3.1-3.11-6.89-6.92-3.08-3.1-6.89-6.91-3.09-3.1-6.9-6.93-3.07-3.08-6.92-6.94-3.06-3.07-6.93-6.94-3.05-3.07-6.94-7-3-3.05-6.94-7-3-3-7-7-3-3-7-7-3-3-7-7-3-3-7-7-8-1.19L63.46,8l-11,3.36c-19.18,8-32.59,21.76-40.88,40.68l-3.2,10L6.25,77l2,4,6.07,6.08,3.91,3.93,6.09,6.1,3.89,3.91,6.1,6.12,3.87,3.89,6.12,6.14,3.85,3.87,6.19,6.2,3.44,3.5,6.8,6.83,3.16,3.19,6.82,6.84,3.15,3.18,6.83,6.86,3.14,3.16,6.85,6.88,3.12,3.13,6.87,6.9,3.12,3.12,6.88,6.9,3.1,3.11,6.88,6.91,3.09,3.11,6.89,6.93,3.08,3.09,6.91,6.93,3.07,3.08,6.92,6.94,3.06,3.07,6.93,6.95,3.06,3.06,6.94,7,3,3.06,6.93,7,3,3.06,6.95,7,3,3,7,7,3,3,7,7,3,3,7,7,3,3,7,7,3,3,7,7,2.82,1.61,4.11-10.81c1.64-4.69,3.16-9.43,5-14a5.59,5.59,0,0,1,2.92-2.92c5.31-1.88,10.73-3.46,16.11-5.15l7.9-2.86,3.16-8.85C288,269.85,289.57,264.66,291.42,259.58Z"/><path class="cls-1" d="M247.27,319.7l-.08,0-.1.26Z"/><path class="cls-1" d="M356.48,83l-4.13-5.94-4-4-6-6-4-4-6-6-4-4-6-6-4-4-6-6-4-4-6-6-4-4-6-6-4-4-6-6-4.1-4L268.38,0c-3.46,2.18-7.4,3.85-10.3,6.62C246.28,17.89,234.8,29.49,223.2,41L187.93,76.61c-1.47,1.48-3.61,2.83-1.26,5.24l6.86,6.89,3.11,3.13,6.72,6.27,4.25,3.77,5.87,5.87,4.13,4.13,5.87,5.86,3.89,2.29c9,0,12.12-3.23,11.76-11.95L237.42,105l-7-7.07-3-3-7-7-3.06-2.86L234.18,68.5,237.45,72l6,6,4,4,6,5.95,8.94,2.21c4.88-2,7.07-5.73,6.9-10.93l-2-4.13-6.92-7-3-3-7-7-2.75-2.56,22.82-22.76L273.35,36l6,6,4,4,6,6,4,4,6,6,4,4,6,6,4,4,6,6,4,4c3.22,2.69-.36,3.72-1.47,4.83q-29.3,29.55-58.79,58.91c-1.27,1.27-2.48,2.6-3.88,4.07l4.24,5.06,3,3.06,6.94,7,3,3.05c1.59-1,3.42-1.82,4.73-3.13q34.85-34.71,69.53-69.59c2.61-2.64,4.31-6.17,6.43-9.29Z"/><path class="cls-1" d="M161.45,267.8,157.64,264l-5.08-4.34c-4.45,4.66-8.7,9.29-13.14,13.74q-24.41,24.52-49,48.91c-1.35,1.34-2.78,4.71-5.2.89l-3.08-3.08-6.92-6.92-3.08-3.08-6.92-6.92-3.08-3.08-6.92-6.92-3.08-3.08-6.92-6.93-3.07-3.08-6.93-6.93-2.76-2.57,22.72-22.8,3,3.25,6.1,6.1,3.9,3.9,6.11,6.07,9,2.08c4.53-1.71,6.39-5.31,6.89-9.84L88,254.2l-6.8-6.91-3.12-3.12-6.88-6.88-2.9-2.72L86.06,217l1.59,3.88,6.88,6.88,3.12,3.12,6.91,6.81,5.17,2.2c4.55-.49,8.13-2.37,9.84-6.91l-2.08-9-6.07-6.11-3.9-3.9-6.1-6.1L97.66,204l-6.41-6.75-3.09-3.1-6.88-6.91c-2.42-2.31-3.77-.18-5.25,1.29q-16.52,16.5-33,33c-1.16,1.16-2.44,2.21-3.67,3.31C28.24,236.05,17.26,247.39,6,258.42,1.76,262.56-.64,267,.15,273l3.16,6.18,2.91,2.94,7.09,7.09,2.91,2.91,7.08,7.09,2.91,2.91,7.09,7.09,2.91,2.91,7.09,7.09,2.91,2.91,7.09,7.09,2.91,2.91,7.09,7.09,2.91,2.91,7.09,7.09,2.91,2.91,8.16,5.1h6c2.71-1.86,5.78-3.36,8.08-5.63q35.05-34.79,69.87-69.81a46.9,46.9,0,0,0,3.1-3.8l-3.81-4Z"/><path class="cls-1" d="M341.22,327.3l-1.61-5.3-2.39-9.58L335.6,307l-2.37-9.5-3.84-5.56c-20.4,6.07-33.52,19.24-38.91,39.93l4.13,2,10.87,2.92,3.92,1.11,12,3.16,4,1,12,2.79c3.92-.63,6.33-2.61,6.16-6.89Z"/></g></g></svg>