<svg xmlns="http://www.w3.org/2000/svg" viewBox="0 0 24 22"><title>Wishlist_1</title><g id="Layer_2" data-name="Layer 2"><g id="Isolation_Mode" data-name="Isolation Mode"><path d="M23.82,4.39a1.52,1.52,0,0,0-1.45-1.44L19,2.84V1.5a1.5,1.5,0,0,0-3,0V2.78c-1.17,0-6.83,0-8,0V1.5a1.5,1.5,0,0,0-3,0V2.84l-3.36.1A1.52,1.52,0,0,0,.18,4.39c-.24,5.41-.24,10.57,0,16a1.52,1.52,0,0,0,1.45,1.44C5,21.94,8.63,22,12,22s7-.06,10.36-.19a1.52,1.52,0,0,0,1.45-1.44C24.06,15,24.06,9.79,23.82,4.39Zm-2.9,13.56a1,1,0,0,1-1,.95C17.38,19,14.55,19,12,19s-5.38,0-7.94-.11a1,1,0,0,1-1-.95C3,15.62,3,13.29,3,11a1,1,0,0,1,1-1H20a1,1,0,0,1,1,1C21,13.29,21,15.62,20.91,17.94Z"/><rect x="15" y="14" width="3" height="3" rx="1" ry="1"/></g></g></svg>