<?xml version="1.0" encoding="utf-8"?>
<!-- Generator: Adobe Illustrator 21.1.0, SVG Export Plug-In . SVG Version: 6.00 Build 0)  -->
<svg version="1.1" id="Layer_1" xmlns="http://www.w3.org/2000/svg" xmlns:xlink="http://www.w3.org/1999/xlink" x="0px" y="0px"
	 viewBox="0 0 25.4 20" style="enable-background:new 0 0 25.4 20;" xml:space="preserve">
<title>Partners</title>
<path d="M25.4,17.7c-0.5-3.6-2.5-6.2-5-7.3c1.4-0.8,2.3-2.2,2.3-3.9c0-2.5-2-4.5-4.5-4.5c-2.5,0-4.5,2-4.5,4.5
	c0,1.7,0.9,3.1,2.3,3.9c-1.2,0.5-2.3,1.4-3.2,2.6c-0.9-1.2-2-2.1-3.2-2.6c1.4-0.8,2.3-2.2,2.3-3.9C11.8,4,9.8,2,7.3,2S2.7,4,2.7,6.5
	c0,1.7,0.9,3.1,2.3,3.9c-2.5,1-4.5,3.7-5,7.3c-0.1,1,0.3,2,0.8,2C4.7,20,8.6,20,12.5,19.8c4,0.2,8,0.2,12,0
	C25.1,19.7,25.5,18.7,25.4,17.7z"/>
</svg>
