<svg xmlns="http://www.w3.org/2000/svg" viewBox="0 0 1305.98 656.87"><defs><style>.cls-1{fill:#474e5d;}.cls-2{fill:#fefefe;}.cls-3{fill:#d8dadf;}.cls-4{fill:#d7d9de;}.cls-5{fill:#e7eaef;}.cls-6{fill:#6bc3e9;}.cls-7{fill:#f9565a;}.cls-8{fill:#fde69a;}.cls-9{fill:#72c6ea;}.cls-10{fill:#fde79e;}.cls-11{fill:#f95b5f;}.cls-12{fill:#fde8a4;}.cls-13{fill:#f68b26;}.cls-14{fill:#f96266;}.cls-15{fill:#77c8eb;}.cls-16{fill:#f6902f;}.cls-17{fill:#f68d2a;}.cls-18{fill:#f79436;}.cls-19{fill:#00a785;}.cls-20{fill:#07aa88;}.cls-21{fill:#0fac8c;}.cls-22{fill:#d7dae0;}.cls-23{fill:#4b5261;}.cls-24{fill:#f9f9fa;}.cls-25{fill:#15af8f;}</style></defs><title>screenshot-placeholder</title><g id="Layer_2" data-name="Layer 2"><g id="Layer_1-2" data-name="Layer 1"><path class="cls-1" d="M86.56,622.77q-.1-146.13-.16-292.27c0-12.28,6.53-18.06,19.88-18.07q88.08-.06,176.17,0h12.18V301.36c0-92.42.12-184.84-.18-277.26,0-10,1.63-18.24,10.19-24.1h702.93c8.55,5.85,10.24,14.09,10.19,24.07-.33,73.67-.18,147.34-.18,221,0,3.54,0,7.09,0,11.26,20.41,0,39.68-.07,59,0,15.46.08,23.09,7.89,23.14,23.52,0,16.67,0,33.33,0,50,0,23.92,0,47.83,0,72.16h20c0-15.41,0-30.33,0-45.26,0-16.84,7.47-24.31,24.34-24.33,45,0,90,.33,135-.24,12.27-.15,20.94,3.82,26.9,14.24V596.79l-8.05,7.95c-5.7,1.36-11.39,3.84-17.11,3.89-38.32.35-76.65.17-115,.2-4,0-9.53-1.51-7.71,6.07-1.4,10.21,2.47,21.5-6.21,30.21-6.48,1.91-12.91,5.26-19.44,5.47q-32.76,1-65.58,0c-6.53-.21-13-3.57-19.44-5.48-8.65-8.71-4.77-20-6.22-30.2,1.87-8.79-4.86-6-8.67-6-58.34-.14-116.69,0-175-.28-6.38,0-12.74-2.67-19.11-4.11L831,584.87q0-2.1,0-4.19,0-42,0-84V431.21H555.31V496.7l0,74q0,5,0,10l.05,6.15-.59,35.89-28,.06-166,.4h-80.2c-4-.13-8-.38-12-.38Q177.58,622.78,86.56,622.77Zm962.78-80.06-7.4,2-.65-78.09c.11-11,.29-22,.31-33,0-25.78,4.16-30.15,29.69-31.34.55,0,1.08-.6,2.36-1.35,0-34.5,0-69.44-.17-104.38,0-1.29-2.49-2.56-3.82-3.84q-104.55-.12-209.1-.2a9.58,9.58,0,0,0-2.85,1.06v279h183.84c0,3.91-.85,8.11.28,11.67,1.82,5.74,4.95,11.07,7.52,16.57l1,13.75h93.42c9,1,5.23-5.65,5.72-9.72l0-32.17V439.28h-99.59c0,33.61,0,66.52,0,99.43Zm108.77-14v51.38h139.52V528.7q0-27,0-54.07,0-56.09,0-112.17c-3-1.33-6-3.79-9-3.81-50.38-.24-100.77-.18-151.15-.15-2.91,0-5.82.26-9,.41v43c25.58,2.4,29.32,6.57,29.37,31.74,0,21,.21,42,.32,63Q1158.11,512.68,1158.11,528.7ZM538.63,468.62q.16-67.44.24-134.88c0-1.66-1.29-3.32-2-5-1.66-.11-3.32-.3-5-.3q-210.66,0-421.31,0a76.73,76.73,0,0,0-7.68.75V606.17H538.63V566.75Q538.63,517.68,538.63,468.62ZM989.22,164.21c.11-43.27.28-86.55.16-129.82,0-2-2.49-4-3.82-6-2-.12-4-.34-6-.34q-323.92,0-647.83,0c-2.86,0-5.72.4-8.47.61V312.41h12.39q99.63,0,199.26,0c14.27,0,20,5.73,20,20,.08,14,0,28,0,42.05,0,9.19,0,18.38,0,27.42H831v-89.5q.16-16,.32-32c.15-16.61,7.67-24,24.63-24q61.06-.06,122.12,0h11.14Zm-35.6,426.32c5.6,4,8.84,8.06,11.65,7.79,3-.29,5.57-4.72,8.33-7.34-2.63-2.75-5-7.31-8-7.74C962.85,582.84,959.43,586.79,953.63,590.53Zm268.13,4.34c-5.68-3.91-9-7.94-11.79-7.62-3,.34-5.48,4.82-8.19,7.49,2.68,2.7,5.13,7.21,8.1,7.59C1212.67,602.68,1216,598.69,1221.75,594.87Zm-110.15,37.92c-5.73-3.84-9.08-7.85-11.88-7.49-3,.37-5.42,4.88-8.1,7.59,2.71,2.67,5.21,7.15,8.19,7.49C1102.62,640.7,1105.93,636.67,1111.61,632.79Z"/><path class="cls-2" d="M1041.25,614.91c1.45,10.19-2.42,21.49,6.22,30.2l-15.19,5.2,5.34,6.56H573c2.58-1.31,5.12-3.64,7.76-3.76,10.32-.46,20.7.17,31-.37,9.93-.52,19.82-2,29.72-3l-.16-2.31-36.19-2.66,11.06-22H554.78l.59-35.89c10.59.63,21.2,1.94,31.78,1.8Q709.08,587,831,584.87l7.45,19.65L826,607.93l.47,3.35A1509.39,1509.39,0,0,0,1041.25,614.91Z"/><path class="cls-2" d="M1151.93,645.12c8.68-8.71,4.8-20,6.21-30.21,49.43,3.84,98.72,2.89,147.85-4.1v46.06H1159.78l5.11-6.53Z"/><path class="cls-3" d="M605.16,644.77l36.19,2.66.16,2.31c-9.91,1-19.79,2.49-29.72,3-10.32.54-20.69-.1-31,.37-2.64.12-5.17,2.45-7.76,3.76H68.34c-2.92-1.31-5.78-3.61-8.76-3.78-17.92-1-35.87-1.48-53.81-2.28-2-.09-4-1.12-5.77-3.39l36.19-2.66c10.91,2,21.82,5.81,32.74,5.83q251.75.56,503.5,0C583.34,650.57,594.25,646.8,605.16,644.77Z"/><path class="cls-3" d="M1306,610.81c-49.13,7-98.42,7.94-147.85,4.1-1.82-7.58,3.68-6.07,7.71-6.07,38.32,0,76.65.14,115-.2,5.71-.05,11.4-2.54,17.11-3.89l8.05,2.07Z"/><path class="cls-4" d="M1151.93,645.12l13,5.22-5.11,6.53H1037.62l-5.34-6.56,15.19-5.2c6.48,1.92,12.91,5.27,19.44,5.48q32.76,1,65.58,0C1139,650.38,1145.45,647,1151.93,645.12Z"/><path class="cls-2" d="M518.94,656.87h0Z"/><path class="cls-2" d="M84.36,656.87h0Z"/><path class="cls-2" d="M1306,606.8l-8.05-2.07,8.05-7.95Z"/><path class="cls-2" d="M1043.63,656.87h0Z"/><path class="cls-2" d="M1147.77,656.87h0Z"/><path class="cls-2" d="M1141.76,656.87h0Z"/><path class="cls-5" d="M605.16,644.77c-10.91,2-21.82,5.81-32.74,5.83q-251.75.56-503.5,0c-10.92,0-21.83-3.8-32.74-5.83l-11.42-22h61.8q91,0,182,.08c4,0,8,.25,12,.38,3.63,2.54,7.18,7.13,10.9,7.27,19.45.74,39,.74,58.4,0,3.72-.14,7.27-4.72,10.9-7.26l166-.4,28-.06h61.43Z"/><path class="cls-6" d="M831,312.41v89.5H555c0-9,0-18.24,0-27.42,0-14,.06-28,0-42.05-.08-14.27-5.77-20-20-20q-99.63-.06-199.26,0H323.29V28.68c2.75-.21,5.61-.61,8.47-.61q323.92,0,647.83,0c2,0,4,.22,6,.34-1.34,2.21-2.31,4.77-4.06,6.58Q950.76,67,919.8,98.76c-18.73,19.21-37.6,38.3-56.41,57.44-2.72,1.73-5.91,3-8.1,5.25q-31.81,32.46-63.34,65.19C770.85,248.4,749.61,270,728.79,292c-4.94,5.22-8.43,11.8-12.59,17.76l2.09,2.62Z"/><path class="cls-7" d="M538.63,566.75v39.42H102.92V329.22a76.73,76.73,0,0,1,7.68-.75q210.66-.05,421.31,0c1.66,0,3.32.2,5,.3Q483.61,383.39,430.29,438c-6.94,7.09-14.32,13.75-21.5,20.61-33.71,33.86-70.45,65.05-98.12,108.14Z"/><path class="cls-8" d="M857.72,504.67V293.58a9.58,9.58,0,0,1,2.85-1.06q104.55.05,209.1.2c-2,2.92-3.69,6.2-6.15,8.69-18.22,18.44-36.71,36.6-54.88,55.09-11.62,11.81-22.6,24.25-34.27,36-17.44,17.55-35.24,34.74-52.89,52.08-18.12,17.78-36.18,35.62-54.41,53.29C864.33,500.53,860.85,502.42,857.72,504.67Z"/><path class="cls-9" d="M831,312.41H718.29l-2.09-2.62c4.16-6,7.66-12.54,12.59-17.76,20.81-22,42.06-43.63,63.15-65.38s42.13-43.56,63.34-65.19c2.2-2.24,5.38-3.52,8.1-5.25-.52,7.92,4.72,8.07,10.48,8.05q57.68-.12,115.36,0v92.12H978.09q-61.06,0-122.12,0c-17,0-24.49,7.44-24.63,24Q831.2,296.4,831,312.41Z"/><path class="cls-10" d="M857.72,504.67c3.13-2.24,6.61-4.13,9.34-6.79,18.22-17.67,36.29-35.51,54.41-53.29l-11.1,22h130.92l.65,78.09-.39,27.84H857.72Z"/><path class="cls-11" d="M538.63,566.75h-228c27.68-43.09,64.41-74.28,98.12-108.14l.81,10h129Q538.63,517.68,538.63,566.75Z"/><path class="cls-5" d="M555.31,496.7V431.21H831V496.7l-101.92,0h-146Zm115.12-35.77a14.32,14.32,0,1,0-15.14,13.77A14.39,14.39,0,0,0,670.44,460.93Z"/><path class="cls-12" d="M1041.29,466.61H910.37l11.1-22c17.65-17.34,35.45-34.53,52.89-52.08,11.68-11.75,22.66-24.19,34.27-36,18.17-18.48,36.67-36.65,54.88-55.09,2.46-2.49,4.12-5.77,6.15-8.69,1.33,1.28,3.81,2.55,3.82,3.84.21,34.94.17,69.88.17,104.38-1.28.75-1.81,1.32-2.36,1.35-25.53,1.19-29.64,5.55-29.69,31.34C1041.59,444.63,1041.4,455.62,1041.29,466.61Z"/><path class="cls-5" d="M555.32,580.73q0-5,0-10c5.7.89,8.32-1.91,9.84-7.21,5.08-17.69,10.5-35.27,15.78-52.9,3.45.69,6.9,2,10.36,2q70.05.19,140.11.07c4.73,15.44,10.31,30.68,13.89,46.37,2.46,10.77,8.86,13.45,18.15,13.7,2.33.06,5-.69,6.88.27,2.08,1.09,3.38,3.68,5,5.62-3.42.71-6.85,2-10.27,2.05Q660.18,580.84,555.32,580.73Z"/><path class="cls-13" d="M1158.11,496.66c-.11-21-.27-42-.32-63-.06-25.17-3.79-29.34-29.37-31.74v-43c3.21-.15,6.12-.41,9-.41,50.38,0,100.77-.09,151.15.15,3,0,6,2.48,9,3.81-2.92,2-6.21,3.73-8.72,6.2q-24.24,23.89-48.17,48.09c-17,17.22-34,34.58-50.92,51.87-3.2,2.86-6.37,5.75-9.59,8.59Q1169.19,487,1158.11,496.66Z"/><path class="cls-14" d="M538.63,468.62h-129l-.81-10c7.18-6.86,14.56-13.52,21.5-20.61q53.39-54.53,106.59-109.24c.69,1.66,2,3.32,2,5Q538.87,401.18,538.63,468.62Z"/><path class="cls-15" d="M989.22,164.21q-57.68,0-115.36,0c-5.76,0-11-.14-10.48-8.05C882.2,137.06,901.06,118,919.8,98.76Q950.78,67,981.51,35c1.75-1.82,2.72-4.37,4.06-6.58,1.33,2,3.81,4,3.82,6C989.5,77.67,989.33,120.94,989.22,164.21Z"/><path class="cls-16" d="M1158.11,496.66q11.06-9.72,22.12-19.45c3.22-2.84,6.39-5.73,9.59-8.59.69,6.86,5.86,6,10.45,6q48.68,0,97.36,0,0,27,0,54.07H1158.11Q1158.11,512.68,1158.11,496.66Z"/><path class="cls-17" d="M1158.11,528.7h139.52c0,16.9,0,33.79,0,51.38H1158.11Z"/><path class="cls-18" d="M1297.63,474.63q-48.68,0-97.36,0c-4.58,0-9.76.86-10.45-6,17-17.3,33.88-34.65,50.92-51.87q23.94-24.19,48.17-48.09c2.51-2.47,5.79-4.15,8.72-6.2Q1297.63,418.54,1297.63,474.63Z"/><path class="cls-19" d="M1049.91,538.71V439.28h99.59q0,66.62,0,133.36l-1.75-9.9q0-24,0-48.07V445.43l-3.55-1.55-64.56,68.78c-3.63,2.65-7.52,5-10.84,8C1062.34,526.5,1056.19,532.68,1049.91,538.71Z"/><path class="cls-20" d="M1147.76,562.74l1.75,9.9q0,16.08,0,32.17l-5.73,9.72h-93.42c-.34-4.79-.66-9.27-1-13.75q.27-19,.54-38Z"/><path class="cls-21" d="M1147.76,562.74H1049.9q-.28-10-.55-20l.57-4c6.28-6,12.43-12.21,18.89-18,3.32-3,7.21-5.36,10.84-8,3.85.67,7.69,1.88,11.54,1.92,18.85.2,37.71.09,56.57.08Q1147.76,538.71,1147.76,562.74Z"/><path class="cls-3" d="M775.32,578.62,831,580.68q0,2.1,0,4.19-121.92,2-243.84,3.81c-10.58.14-21.19-1.16-31.78-1.8l-.05-6.15q104.86,0,209.73,0C768.47,580.67,771.89,579.34,775.32,578.62Z"/><path class="cls-3" d="M1041.25,614.91a1509.39,1509.39,0,0,1-214.8-3.63l-.47-3.35,12.46-3.42c6.37,1.43,12.73,4.07,19.11,4.11,58.34.32,116.69.15,175,.28C1036.39,608.91,1043.12,606.12,1041.25,614.91Z"/><path class="cls-22" d="M360.77,623.23c-3.63,2.53-7.18,7.12-10.9,7.26-19.45.74-39,.74-58.4,0-3.72-.14-7.27-4.73-10.9-7.27Z"/><path class="cls-23" d="M1049.35,542.71q.27,10,.55,20-.27,19-.54,38c-2.58-5.5-5.71-10.83-7.53-16.57-1.13-3.56-.26-7.76-.28-11.67l.39-27.84Z"/><path class="cls-24" d="M953.63,590.53c5.8-3.75,9.22-7.69,12-7.29,3,.42,5.33,5,8,7.74-2.76,2.62-5.34,7-8.33,7.34C962.47,598.59,959.23,594.51,953.63,590.53Z"/><path class="cls-24" d="M1221.75,594.87c-5.72,3.82-9.08,7.81-11.89,7.46-3-.38-5.42-4.88-8.1-7.59,2.71-2.67,5.21-7.15,8.19-7.49C1212.77,586.93,1216.07,591,1221.75,594.87Z"/><path class="cls-24" d="M1111.61,632.79c-5.68,3.88-9,7.91-11.8,7.59-3-.34-5.48-4.82-8.19-7.49,2.68-2.7,5.13-7.21,8.1-7.59C1102.53,624.94,1105.88,628.95,1111.61,632.79Z"/><path class="cls-19" d="M1143.77,614.54l5.73-9.72C1149,608.89,1152.8,615.49,1143.77,614.54Z"/><path class="cls-22" d="M580.91,510.61l2.22-13.95h146q1.13,8,2.27,16-70,0-140.1-.07C587.82,512.58,584.36,511.3,580.91,510.61Z"/><path class="cls-23" d="M670.44,460.93a14.32,14.32,0,1,1-13.49-14.47A14.3,14.3,0,0,1,670.44,460.93Z"/><path class="cls-25" d="M1147.75,514.67c-18.86,0-37.71.12-56.57-.08-3.85,0-7.69-1.25-11.54-1.92l64.56-68.78,3.55,1.55Z"/></g></g></svg>