<svg xmlns="http://www.w3.org/2000/svg" xmlns:xlink="http://www.w3.org/1999/xlink" viewBox="0 0 500 500"><defs><style>.cls-1{fill:none;}.cls-2{fill:#106460;}.cls-3{fill:#cd2424;}.cls-4{fill:#ffd01e;}.cls-5{fill:#89be73;}.cls-6{fill:#414a59;}.cls-7{fill:#03041c;}.cls-8{fill:#795d48;}.cls-9{fill:#4d2875;}.cls-10{fill:#e18b6a;}.cls-11{fill:#f6312a;}.cls-12{fill:#5b65a9;}.cls-13{fill:#0b7e9d;}.cls-14{fill:#bc5d61;}.cls-15{fill:#dc5a6f;}.cls-16{fill:#00aad6;}.cls-17{fill:#f78b25;}.cls-18{fill:#953879;}.cls-19{fill:#eee4d8;}.cls-20{fill:#2e3647;}.cls-21{fill:#b9e1b2;}.cls-22{fill:url(#New_Pattern_Swatch_1);}</style><pattern id="New_Pattern_Swatch_1" data-name="New Pattern Swatch 1" width="508.47" height="511.47" patternTransform="translate(174.53 -174)" patternUnits="userSpaceOnUse" viewBox="0 0 508.48 511.47"><rect class="cls-1" width="508.47" height="511.47"/><circle class="cls-2" cx="23.39" cy="24.89" r="18"/><circle class="cls-3" cx="22.39" cy="76.45" r="18"/><circle class="cls-4" cx="22.39" cy="128" r="18"/><circle class="cls-5" cx="22.39" cy="179.56" r="18"/><circle class="cls-6" cx="23.39" cy="231.11" r="18"/><circle class="cls-7" cx="22.39" cy="282.67" r="18"/><circle class="cls-8" cx="22.39" cy="334.22" r="18"/><circle class="cls-9" cx="22.39" cy="385.78" r="18"/><circle class="cls-7" cx="22.39" cy="437.34" r="18"/><circle class="cls-10" cx="22.39" cy="488.89" r="18"/><circle class="cls-11" cx="74.84" cy="24.89" r="18"/><circle class="cls-7" cx="73.84" cy="76.45" r="18"/><circle class="cls-2" cx="73.84" cy="128" r="18"/><circle class="cls-7" cx="73.84" cy="179.56" r="18"/><circle class="cls-12" cx="74.84" cy="231.11" r="18"/><circle class="cls-13" cx="73.84" cy="282.67" r="18"/><circle class="cls-14" cx="73.84" cy="334.22" r="18"/><circle class="cls-15" cx="73.84" cy="385.78" r="18"/><circle class="cls-16" cx="73.84" cy="437.34" r="18"/><circle class="cls-7" cx="73.84" cy="488.89" r="18"/><circle class="cls-17" cx="126.28" cy="24.89" r="18"/><circle class="cls-13" cx="125.28" cy="76.45" r="18"/><circle class="cls-18" cx="125.28" cy="128" r="18"/><circle class="cls-9" cx="125.28" cy="179.56" r="18"/><circle class="cls-19" cx="126.28" cy="231.11" r="18"/><circle class="cls-20" cx="125.28" cy="282.67" r="18"/><circle class="cls-18" cx="125.28" cy="334.22" r="18"/><circle class="cls-4" cx="125.28" cy="385.78" r="18"/><circle class="cls-2" cx="125.28" cy="437.34" r="18"/><circle class="cls-3" cx="125.28" cy="488.89" r="18"/><circle class="cls-14" cx="177.72" cy="24.89" r="18"/><circle class="cls-9" cx="176.72" cy="76.45" r="18"/><circle class="cls-21" cx="176.72" cy="128" r="18"/><circle class="cls-8" cx="176.72" cy="179.56" r="18"/><circle class="cls-10" cx="177.72" cy="231.11" r="18"/><circle class="cls-7" cx="176.72" cy="282.67" r="18"/><circle class="cls-3" cx="176.72" cy="334.22" r="18"/><circle class="cls-19" cx="176.72" cy="385.78" r="18"/><circle class="cls-6" cx="176.72" cy="437.34" r="18"/><circle class="cls-14" cx="176.72" cy="488.89" r="18"/><circle class="cls-7" cx="229.17" cy="24.89" r="18"/><circle class="cls-2" cx="228.17" cy="76.45" r="18"/><circle class="cls-7" cx="228.17" cy="128" r="18"/><circle class="cls-14" cx="228.17" cy="179.56" r="18"/><circle class="cls-12" cx="229.17" cy="231.11" r="18"/><circle class="cls-17" cx="228.17" cy="282.67" r="18"/><circle class="cls-7" cx="228.17" cy="334.22" r="18"/><circle class="cls-5" cx="228.17" cy="385.78" r="18"/><circle class="cls-13" cx="228.17" cy="437.34" r="18"/><circle class="cls-8" cx="228.17" cy="488.89" r="18"/><circle class="cls-4" cx="280.61" cy="24.89" r="18"/><circle class="cls-19" cx="279.61" cy="76.45" r="18"/><circle class="cls-16" cx="279.61" cy="128" r="18"/><circle class="cls-7" cx="279.61" cy="179.56" r="18"/><circle class="cls-6" cx="280.61" cy="231.11" r="18"/><circle class="cls-7" cx="279.61" cy="282.67" r="18"/><circle class="cls-14" cx="279.61" cy="334.22" r="18"/><circle class="cls-7" cx="279.61" cy="385.78" r="18"/><circle class="cls-7" cx="279.61" cy="437.34" r="18"/><circle class="cls-21" cx="279.61" cy="488.89" r="18"/><circle class="cls-17" cx="332.06" cy="24.89" r="18"/><circle class="cls-5" cx="331.06" cy="76.45" r="18"/><circle class="cls-18" cx="331.06" cy="128" r="18"/><circle class="cls-15" cx="331.06" cy="179.56" r="18"/><circle class="cls-7" cx="332.06" cy="231.11" r="18"/><circle class="cls-4" cx="331.06" cy="282.67" r="18"/><circle class="cls-2" cx="331.06" cy="334.22" r="18"/><circle class="cls-7" cx="331.06" cy="385.78" r="18"/><circle class="cls-9" cx="331.06" cy="437.34" r="18"/><circle class="cls-18" cx="331.06" cy="488.89" r="18"/><circle class="cls-8" cx="383.5" cy="24.89" r="18"/><circle class="cls-20" cx="382.5" cy="76.45" r="18"/><circle class="cls-7" cx="382.5" cy="128" r="18"/><circle class="cls-7" cx="382.5" cy="179.56" r="18"/><circle class="cls-10" cx="383.5" cy="231.11" r="18"/><circle class="cls-16" cx="382.5" cy="282.67" r="18"/><circle class="cls-17" cx="382.5" cy="334.22" r="18"/><circle class="cls-20" cx="382.5" cy="385.78" r="18"/><circle class="cls-12" cx="382.5" cy="437.34" r="18"/><circle class="cls-19" cx="382.5" cy="488.89" r="18"/><circle class="cls-3" cx="434.95" cy="24.89" r="18"/><circle class="cls-7" cx="433.95" cy="76.45" r="18"/><circle class="cls-9" cx="433.95" cy="128" r="18"/><circle class="cls-2" cx="433.95" cy="179.56" r="18"/><circle class="cls-11" cx="434.95" cy="231.11" r="18"/><circle class="cls-5" cx="433.95" cy="282.67" r="18"/><circle class="cls-13" cx="433.95" cy="334.22" r="18"/><circle class="cls-15" cx="433.95" cy="385.78" r="18"/><circle class="cls-17" cx="433.95" cy="437.34" r="18"/><circle class="cls-2" cx="433.95" cy="488.89" r="18"/><circle class="cls-13" cx="486.39" cy="24.89" r="18"/><circle class="cls-6" cx="485.39" cy="76.45" r="18"/><circle class="cls-12" cx="485.39" cy="128" r="18"/><circle class="cls-7" cx="485.39" cy="179.56" r="18"/><circle class="cls-7" cx="486.39" cy="231.11" r="18"/><circle class="cls-19" cx="485.39" cy="282.67" r="18"/><circle class="cls-8" cx="485.39" cy="334.22" r="18"/><circle class="cls-18" cx="485.39" cy="385.78" r="18"/><circle class="cls-7" cx="485.39" cy="437.34" r="18"/><circle class="cls-4" cx="485.39" cy="488.89" r="18"/></pattern></defs><title>weird-pattern</title><g id="Layer_2" data-name="Layer 2"><g id="Layer_1-2" data-name="Layer 1"><circle class="cls-22" cx="19" cy="18" r="18"/><circle class="cls-22" cx="18" cy="69.56" r="18"/><circle class="cls-22" cx="18" cy="121.11" r="18"/><circle class="cls-22" cx="18" cy="172.67" r="18"/><circle class="cls-22" cx="19" cy="224.22" r="18"/><circle class="cls-22" cx="18" cy="275.78" r="18"/><circle class="cls-22" cx="18" cy="327.33" r="18"/><circle class="cls-22" cx="18" cy="378.89" r="18"/><circle class="cls-22" cx="18" cy="430.44" r="18"/><circle class="cls-22" cx="18" cy="482" r="18"/><circle class="cls-22" cx="70.44" cy="18" r="18"/><circle class="cls-22" cx="69.44" cy="69.56" r="18"/><circle class="cls-22" cx="69.44" cy="121.11" r="18"/><circle class="cls-22" cx="69.44" cy="172.67" r="18"/><circle class="cls-22" cx="70.44" cy="224.22" r="18"/><circle class="cls-22" cx="69.44" cy="275.78" r="18"/><circle class="cls-22" cx="69.44" cy="327.33" r="18"/><circle class="cls-22" cx="69.44" cy="378.89" r="18"/><circle class="cls-22" cx="69.44" cy="430.44" r="18"/><circle class="cls-22" cx="69.44" cy="482" r="18"/><circle class="cls-22" cx="121.89" cy="18" r="18"/><circle class="cls-22" cx="120.89" cy="69.56" r="18"/><circle class="cls-22" cx="120.89" cy="121.11" r="18"/><circle class="cls-22" cx="120.89" cy="172.67" r="18"/><circle class="cls-22" cx="121.89" cy="224.22" r="18"/><circle class="cls-22" cx="120.89" cy="275.78" r="18"/><circle class="cls-22" cx="120.89" cy="327.33" r="18"/><circle class="cls-22" cx="120.89" cy="378.89" r="18"/><circle class="cls-22" cx="120.89" cy="430.44" r="18"/><circle class="cls-22" cx="120.89" cy="482" r="18"/><circle class="cls-22" cx="173.33" cy="18" r="18"/><circle class="cls-22" cx="172.33" cy="69.56" r="18"/><circle class="cls-22" cx="172.33" cy="121.11" r="18"/><circle class="cls-22" cx="172.33" cy="172.67" r="18"/><circle class="cls-22" cx="173.33" cy="224.22" r="18"/><circle class="cls-22" cx="172.33" cy="275.78" r="18"/><circle class="cls-22" cx="172.33" cy="327.33" r="18"/><circle class="cls-22" cx="172.33" cy="378.89" r="18"/><circle class="cls-22" cx="172.33" cy="430.44" r="18"/><circle class="cls-22" cx="172.33" cy="482" r="18"/><circle class="cls-22" cx="224.78" cy="18" r="18"/><circle class="cls-22" cx="223.78" cy="69.56" r="18"/><circle class="cls-22" cx="223.78" cy="121.11" r="18"/><circle class="cls-22" cx="223.78" cy="172.67" r="18"/><circle class="cls-22" cx="224.78" cy="224.22" r="18"/><circle class="cls-22" cx="223.78" cy="275.78" r="18"/><circle class="cls-22" cx="223.78" cy="327.33" r="18"/><circle class="cls-22" cx="223.78" cy="378.89" r="18"/><circle class="cls-22" cx="223.78" cy="430.44" r="18"/><circle class="cls-22" cx="223.78" cy="482" r="18"/><circle class="cls-22" cx="276.22" cy="18" r="18"/><circle class="cls-22" cx="275.22" cy="69.56" r="18"/><circle class="cls-22" cx="275.22" cy="121.11" r="18"/><circle class="cls-22" cx="275.22" cy="172.67" r="18"/><circle class="cls-22" cx="276.22" cy="224.22" r="18"/><circle class="cls-22" cx="275.22" cy="275.78" r="18"/><circle class="cls-22" cx="275.22" cy="327.33" r="18"/><circle class="cls-22" cx="275.22" cy="378.89" r="18"/><circle class="cls-22" cx="275.22" cy="430.44" r="18"/><circle class="cls-22" cx="275.22" cy="482" r="18"/><circle class="cls-22" cx="327.67" cy="18" r="18"/><circle class="cls-22" cx="326.67" cy="69.56" r="18"/><circle class="cls-22" cx="326.67" cy="121.11" r="18"/><circle class="cls-22" cx="326.67" cy="172.67" r="18"/><circle class="cls-22" cx="327.67" cy="224.22" r="18"/><circle class="cls-22" cx="326.67" cy="275.78" r="18"/><circle class="cls-22" cx="326.67" cy="327.33" r="18"/><circle class="cls-22" cx="326.67" cy="378.89" r="18"/><circle class="cls-22" cx="326.67" cy="430.44" r="18"/><circle class="cls-22" cx="326.67" cy="482" r="18"/><circle class="cls-22" cx="379.11" cy="18" r="18"/><circle class="cls-22" cx="378.11" cy="69.56" r="18"/><circle class="cls-22" cx="378.11" cy="121.11" r="18"/><circle class="cls-22" cx="378.11" cy="172.67" r="18"/><circle class="cls-22" cx="379.11" cy="224.22" r="18"/><circle class="cls-22" cx="378.11" cy="275.78" r="18"/><circle class="cls-22" cx="378.11" cy="327.33" r="18"/><circle class="cls-22" cx="378.11" cy="378.89" r="18"/><circle class="cls-22" cx="378.11" cy="430.44" r="18"/><circle class="cls-22" cx="378.11" cy="482" r="18"/><circle class="cls-22" cx="430.56" cy="18" r="18"/><circle class="cls-22" cx="429.56" cy="69.56" r="18"/><circle class="cls-22" cx="429.56" cy="121.11" r="18"/><circle class="cls-22" cx="429.56" cy="172.67" r="18"/><circle class="cls-22" cx="430.56" cy="224.22" r="18"/><circle class="cls-22" cx="429.56" cy="275.78" r="18"/><circle class="cls-22" cx="429.56" cy="327.33" r="18"/><circle class="cls-22" cx="429.56" cy="378.89" r="18"/><circle class="cls-22" cx="429.56" cy="430.44" r="18"/><circle class="cls-22" cx="429.56" cy="482" r="18"/><circle class="cls-22" cx="482" cy="18" r="18"/><circle class="cls-22" cx="481" cy="69.56" r="18"/><circle class="cls-22" cx="481" cy="121.11" r="18"/><circle class="cls-22" cx="481" cy="172.67" r="18"/><circle class="cls-22" cx="482" cy="224.22" r="18"/><circle class="cls-22" cx="481" cy="275.78" r="18"/><circle class="cls-22" cx="481" cy="327.33" r="18"/><circle class="cls-22" cx="481" cy="378.89" r="18"/><circle class="cls-22" cx="481" cy="430.44" r="18"/><circle class="cls-22" cx="481" cy="482" r="18"/></g></g></svg>